G75*
%MOIN*%
%OFA0B0*%
%FSLAX25Y25*%
%IPPOS*%
%LPD*%
%AMOC8*
5,1,8,0,0,1.08239X$1,22.5*
%
%ADD10OC8,0.05200*%
%ADD11C,0.10000*%
%ADD12OC8,0.10000*%
%ADD13C,0.04400*%
%ADD14C,0.07677*%
%ADD15R,0.05900X0.05900*%
%ADD16C,0.05900*%
%ADD17C,0.06000*%
%ADD18OC8,0.07874*%
%ADD19C,0.05200*%
%ADD20C,0.27000*%
%ADD21C,0.05000*%
%ADD22C,0.04000*%
D10*
X0057380Y0170963D03*
X0077380Y0170963D03*
X0076081Y0195727D03*
X0056081Y0195727D03*
X0070018Y0250018D03*
X0080018Y0250018D03*
X0085491Y0262183D03*
X0078876Y0270057D03*
X0086711Y0274113D03*
X0087931Y0284979D03*
X0077931Y0291002D03*
X0067931Y0291002D03*
X0087026Y0296987D03*
X0102656Y0317695D03*
X0117026Y0296987D03*
X0117931Y0284979D03*
X0116711Y0274113D03*
X0115491Y0262183D03*
X0068876Y0270057D03*
X0102656Y0347695D03*
D11*
X0223010Y0043876D03*
D12*
X0223010Y0063876D03*
D13*
X0103242Y0161435D02*
X0098842Y0161435D01*
X0098842Y0181435D02*
X0103242Y0181435D01*
D14*
X0086888Y0317774D02*
X0079211Y0317774D01*
X0061298Y0317774D02*
X0053620Y0317774D01*
D15*
X0153404Y0294624D03*
D16*
X0153404Y0284624D03*
X0153404Y0274624D03*
X0153404Y0264624D03*
X0153404Y0254624D03*
X0153404Y0244624D03*
X0153404Y0234624D03*
X0153404Y0224624D03*
X0153404Y0214624D03*
X0153404Y0204624D03*
X0153404Y0194624D03*
X0153404Y0184624D03*
X0153404Y0174624D03*
X0153404Y0164624D03*
X0153404Y0154624D03*
X0153404Y0144624D03*
X0153404Y0134624D03*
X0153404Y0124624D03*
X0153404Y0114624D03*
X0153404Y0104624D03*
X0213404Y0104624D03*
X0213404Y0114624D03*
X0213404Y0124624D03*
X0213404Y0134624D03*
X0213404Y0144624D03*
X0213404Y0154624D03*
X0213404Y0164624D03*
X0213404Y0174624D03*
X0213404Y0184624D03*
X0213404Y0194624D03*
X0213404Y0204624D03*
X0213404Y0214624D03*
X0213404Y0224624D03*
X0213404Y0234624D03*
X0213404Y0244624D03*
X0213404Y0254624D03*
X0213404Y0264624D03*
X0213404Y0274624D03*
X0213404Y0284624D03*
X0213404Y0294624D03*
D17*
X0230955Y0294782D02*
X0236955Y0294782D01*
X0236955Y0284782D02*
X0230955Y0284782D01*
X0230955Y0274782D02*
X0236955Y0274782D01*
X0236955Y0264782D02*
X0230955Y0264782D01*
X0230955Y0254782D02*
X0236955Y0254782D01*
X0236955Y0244782D02*
X0230955Y0244782D01*
X0230955Y0234782D02*
X0236955Y0234782D01*
X0236955Y0224782D02*
X0230955Y0224782D01*
X0230955Y0214782D02*
X0236955Y0214782D01*
X0236955Y0204782D02*
X0230955Y0204782D01*
X0230955Y0194782D02*
X0236955Y0194782D01*
X0236955Y0184782D02*
X0230955Y0184782D01*
X0230955Y0174782D02*
X0236955Y0174782D01*
X0236955Y0164782D02*
X0230955Y0164782D01*
X0230955Y0154782D02*
X0236955Y0154782D01*
X0236955Y0144782D02*
X0230955Y0144782D01*
X0230955Y0134782D02*
X0236955Y0134782D01*
X0236955Y0124782D02*
X0230955Y0124782D01*
X0230955Y0114782D02*
X0236955Y0114782D01*
X0236955Y0104782D02*
X0230955Y0104782D01*
X0276624Y0159585D02*
X0282624Y0159585D01*
X0282624Y0169585D02*
X0276624Y0169585D01*
X0358987Y0168128D02*
X0364987Y0168128D01*
X0364987Y0178128D02*
X0358987Y0178128D01*
X0197302Y0337215D02*
X0197302Y0343215D01*
X0187302Y0343215D02*
X0187302Y0337215D01*
X0177302Y0337215D02*
X0177302Y0343215D01*
X0167302Y0343215D02*
X0167302Y0337215D01*
X0157302Y0337215D02*
X0157302Y0343215D01*
X0147302Y0343215D02*
X0147302Y0337215D01*
X0134554Y0294309D02*
X0128554Y0294309D01*
X0128554Y0284309D02*
X0134554Y0284309D01*
X0134554Y0274309D02*
X0128554Y0274309D01*
X0128554Y0264309D02*
X0134554Y0264309D01*
X0134554Y0254309D02*
X0128554Y0254309D01*
X0128554Y0244309D02*
X0134554Y0244309D01*
X0134554Y0234309D02*
X0128554Y0234309D01*
X0128554Y0224309D02*
X0134554Y0224309D01*
X0134554Y0214309D02*
X0128554Y0214309D01*
X0128554Y0204309D02*
X0134554Y0204309D01*
X0134554Y0194309D02*
X0128554Y0194309D01*
X0128554Y0184309D02*
X0134554Y0184309D01*
X0134554Y0174309D02*
X0128554Y0174309D01*
X0128554Y0164309D02*
X0134554Y0164309D01*
X0134554Y0154309D02*
X0128554Y0154309D01*
X0128554Y0144309D02*
X0134554Y0144309D01*
X0134554Y0134309D02*
X0128554Y0134309D01*
X0128554Y0124309D02*
X0134554Y0124309D01*
X0134554Y0114309D02*
X0128554Y0114309D01*
X0128554Y0104309D02*
X0134554Y0104309D01*
D18*
X0286239Y0108798D03*
X0305924Y0108798D03*
X0068719Y0353089D03*
X0049034Y0353089D03*
D19*
X0305371Y0208680D02*
X0310571Y0208680D01*
X0310571Y0198680D02*
X0305371Y0198680D01*
X0305371Y0188680D02*
X0310571Y0188680D01*
X0310571Y0178680D02*
X0305371Y0178680D01*
X0305371Y0168680D02*
X0310571Y0168680D01*
X0310571Y0158680D02*
X0305371Y0158680D01*
X0305371Y0148680D02*
X0310571Y0148680D01*
X0310571Y0138680D02*
X0305371Y0138680D01*
X0335371Y0138680D02*
X0340571Y0138680D01*
X0340571Y0148680D02*
X0335371Y0148680D01*
X0335371Y0158680D02*
X0340571Y0158680D01*
X0340571Y0168680D02*
X0335371Y0168680D01*
X0335371Y0178680D02*
X0340571Y0178680D01*
X0340571Y0188680D02*
X0335371Y0188680D01*
X0335371Y0198680D02*
X0340571Y0198680D01*
X0340571Y0208680D02*
X0335371Y0208680D01*
D20*
X0014900Y0015136D03*
X0015097Y0381396D03*
X0381514Y0381554D03*
X0381554Y0014900D03*
D21*
X0337971Y0072144D02*
X0297735Y0031908D01*
X0125648Y0031908D01*
X0058207Y0099349D01*
X0058207Y0127065D01*
X0073798Y0142656D01*
X0076160Y0142656D01*
X0080412Y0146908D01*
X0099113Y0146908D01*
X0103010Y0143010D01*
X0130254Y0143010D01*
X0131554Y0144309D01*
X0153089Y0144309D01*
X0153089Y0134309D02*
X0131554Y0134309D01*
X0131554Y0124309D02*
X0153089Y0124309D01*
X0153404Y0124624D01*
X0161239Y0124624D01*
X0165687Y0120176D01*
X0165687Y0101199D01*
X0223010Y0043876D01*
X0223010Y0063876D02*
X0277302Y0063876D01*
X0280884Y0067459D01*
X0280884Y0103443D01*
X0286239Y0108798D01*
X0259388Y0131120D02*
X0256475Y0134034D01*
X0234703Y0134034D01*
X0233955Y0134782D01*
X0233798Y0134624D01*
X0213404Y0134624D01*
X0213404Y0124624D02*
X0215687Y0124624D01*
X0215924Y0124388D01*
X0233561Y0124388D01*
X0233955Y0124782D01*
X0233955Y0114782D02*
X0233798Y0114624D01*
X0213404Y0114624D01*
X0213404Y0104624D02*
X0233798Y0104624D01*
X0233955Y0104782D01*
X0259388Y0131120D02*
X0323168Y0131120D01*
X0329034Y0136987D01*
X0329034Y0156829D01*
X0330884Y0158680D01*
X0337971Y0158680D02*
X0338010Y0158640D01*
X0357656Y0158640D01*
X0361987Y0162971D01*
X0361987Y0168128D01*
X0361987Y0178128D02*
X0361987Y0183601D01*
X0357420Y0188168D01*
X0338483Y0188168D01*
X0337971Y0188680D01*
X0337971Y0178680D02*
X0337971Y0168680D01*
X0337971Y0178680D02*
X0307971Y0178680D01*
X0307971Y0168680D01*
X0307971Y0178680D02*
X0307380Y0179270D01*
X0280018Y0179270D01*
X0254506Y0204782D01*
X0233955Y0204782D01*
X0233798Y0204624D01*
X0213404Y0204624D01*
X0184857Y0195109D01*
X0184857Y0102030D01*
X0223010Y0063876D01*
X0153404Y0104624D02*
X0153089Y0104309D01*
X0131554Y0104309D01*
X0131554Y0114309D02*
X0153089Y0114309D01*
X0153404Y0114624D01*
X0152853Y0154073D02*
X0128758Y0154073D01*
X0128994Y0154309D01*
X0131554Y0154309D01*
X0131554Y0164309D02*
X0103916Y0164309D01*
X0101042Y0161435D01*
X0086908Y0161435D01*
X0077380Y0170963D01*
X0092656Y0181435D02*
X0078089Y0196002D01*
X0076357Y0196002D01*
X0076081Y0195727D01*
X0059585Y0199231D02*
X0056081Y0195727D01*
X0056081Y0172262D01*
X0057380Y0170963D01*
X0059585Y0199231D02*
X0059585Y0223246D01*
X0069388Y0233050D01*
X0071750Y0233050D01*
X0072747Y0234046D01*
X0072747Y0235105D01*
X0071278Y0235648D01*
X0070018Y0250018D01*
X0068876Y0270057D01*
X0067931Y0291002D01*
X0057459Y0317774D01*
X0049034Y0326199D01*
X0049034Y0353089D01*
X0049034Y0355294D01*
X0062223Y0368483D01*
X0087577Y0368483D01*
X0087892Y0368798D01*
X0098640Y0375963D01*
X0145727Y0375176D01*
X0166987Y0375176D01*
X0167302Y0340215D01*
X0177302Y0340215D02*
X0177302Y0325963D01*
X0191672Y0311593D01*
X0191514Y0311357D01*
X0193128Y0294506D01*
X0213404Y0294624D01*
X0213955Y0294073D01*
X0236947Y0294073D01*
X0236239Y0294782D01*
X0233955Y0294782D01*
X0233955Y0284782D02*
X0261632Y0284782D01*
X0261790Y0284939D01*
X0261790Y0296317D01*
X0245215Y0312892D01*
X0204309Y0312892D01*
X0187774Y0329428D01*
X0187774Y0339743D01*
X0187302Y0340215D01*
X0169231Y0316042D02*
X0157302Y0327971D01*
X0157302Y0340215D01*
X0157302Y0358325D01*
X0153719Y0361908D01*
X0120924Y0361908D01*
X0105294Y0346278D01*
X0104073Y0346278D01*
X0102656Y0347695D01*
X0093916Y0347695D01*
X0088522Y0353089D01*
X0068719Y0353089D01*
X0083050Y0317774D02*
X0087026Y0296987D01*
X0077931Y0291002D02*
X0087931Y0284979D01*
X0086711Y0274113D02*
X0078876Y0270057D01*
X0085491Y0262183D02*
X0080018Y0250018D01*
X0072747Y0235105D02*
X0084585Y0230727D01*
X0100963Y0230727D01*
X0115924Y0215766D01*
X0115924Y0188168D01*
X0119191Y0184900D01*
X0130963Y0184900D01*
X0131554Y0184309D01*
X0153089Y0184309D01*
X0153404Y0184624D01*
X0184857Y0195109D01*
X0180136Y0214782D02*
X0174309Y0220609D01*
X0174309Y0289349D01*
X0169231Y0294428D01*
X0169231Y0316042D01*
X0147302Y0310057D02*
X0131554Y0294309D01*
X0119703Y0294309D01*
X0117026Y0296987D01*
X0119388Y0294624D01*
X0153404Y0294624D01*
X0152577Y0285451D02*
X0151357Y0284231D01*
X0132026Y0284231D01*
X0131278Y0284979D01*
X0117931Y0284979D01*
X0116711Y0274113D02*
X0131357Y0274113D01*
X0131554Y0274309D01*
X0151750Y0274309D01*
X0152735Y0275294D01*
X0152144Y0264309D02*
X0131554Y0264309D01*
X0121908Y0264388D01*
X0119703Y0262183D01*
X0115491Y0262183D01*
X0131554Y0254309D02*
X0153089Y0254309D01*
X0153404Y0254624D01*
X0152617Y0263837D02*
X0152144Y0264309D01*
X0153286Y0244743D02*
X0133916Y0244743D01*
X0133483Y0244309D01*
X0131554Y0244309D01*
X0131554Y0234309D02*
X0153089Y0234309D01*
X0153404Y0234624D01*
X0153404Y0244624D02*
X0153286Y0244743D01*
X0153404Y0224624D02*
X0153089Y0224309D01*
X0131554Y0224309D01*
X0131554Y0214309D02*
X0134309Y0214309D01*
X0134821Y0214821D01*
X0153207Y0214821D01*
X0153404Y0214624D01*
X0153404Y0204624D02*
X0131869Y0204624D01*
X0131554Y0204309D01*
X0131869Y0194624D02*
X0153404Y0194624D01*
X0213404Y0214624D01*
X0213246Y0214782D01*
X0180136Y0214782D01*
X0213404Y0214624D02*
X0233798Y0214624D01*
X0233955Y0214782D01*
X0255136Y0214782D01*
X0269703Y0229349D01*
X0340057Y0229349D01*
X0357656Y0211750D01*
X0341042Y0211750D01*
X0337971Y0208680D01*
X0307971Y0148680D02*
X0272656Y0148680D01*
X0256475Y0164861D01*
X0236632Y0164861D01*
X0234664Y0166829D01*
X0234664Y0165491D01*
X0233955Y0164782D01*
X0233798Y0164624D01*
X0213404Y0164624D01*
X0213404Y0154624D02*
X0233798Y0154624D01*
X0233955Y0154782D01*
X0233955Y0144782D02*
X0233798Y0144624D01*
X0213404Y0144624D01*
X0213404Y0174624D02*
X0233798Y0174624D01*
X0233955Y0174782D01*
X0233798Y0184624D02*
X0213404Y0184624D01*
X0213404Y0194624D02*
X0233798Y0194624D01*
X0233955Y0194782D01*
X0233955Y0184782D02*
X0233798Y0184624D01*
X0233798Y0224624D02*
X0213404Y0224624D01*
X0213404Y0234624D02*
X0233798Y0234624D01*
X0233955Y0234782D01*
X0233798Y0244624D02*
X0233955Y0244782D01*
X0233798Y0244624D02*
X0213404Y0244624D01*
X0213404Y0254624D02*
X0231120Y0254624D01*
X0231829Y0255333D01*
X0233404Y0255333D01*
X0233955Y0254782D01*
X0233798Y0254624D01*
X0233798Y0264624D02*
X0233955Y0264782D01*
X0233798Y0264624D02*
X0213404Y0264624D01*
X0213561Y0274782D02*
X0233955Y0274782D01*
X0233955Y0284782D02*
X0213561Y0284782D01*
X0213404Y0284624D01*
X0233955Y0224782D02*
X0233798Y0224624D01*
X0153404Y0174624D02*
X0153089Y0174309D01*
X0131554Y0174309D01*
X0130254Y0173010D01*
X0109467Y0173010D01*
X0101042Y0181435D01*
X0092656Y0181435D01*
X0131554Y0194309D02*
X0131869Y0194624D01*
X0131554Y0164309D02*
X0153089Y0164309D01*
X0153404Y0164624D01*
X0153404Y0154624D02*
X0152853Y0154073D01*
X0147302Y0310057D02*
X0147302Y0340215D01*
X0102656Y0317695D02*
X0083050Y0317774D01*
X0337971Y0138680D02*
X0337971Y0072144D01*
D22*
X0152617Y0263837D02*
X0153404Y0264624D01*
X0153404Y0274624D02*
X0152735Y0275294D01*
X0153404Y0284624D02*
X0152577Y0285451D01*
X0153404Y0294624D02*
X0152892Y0295136D01*
X0102695Y0317656D02*
X0102656Y0317695D01*
X0102223Y0318128D01*
M02*
