%
M48
M72
T01C0.02400
T02C0.03200
T03C0.03900
T04C0.03937
T05C0.04000
T06C0.05118
T07C0.13500
%
T01
X101042Y161435
X101042Y181435
T02
X77380Y170963
X57380Y170963
X56081Y195727
X76081Y195727
X80018Y250018
X70018Y250018
X85491Y262183
X78876Y270057
X86711Y274113
X87931Y284979
X77931Y291002
X67931Y291002
X87026Y296987
X102656Y317695
X117026Y296987
X117931Y284979
X116711Y274113
X115491Y262183
X68876Y270057
X102656Y347695
X307971Y208680
X307971Y198680
X307971Y188680
X307971Y178680
X307971Y168680
X307971Y158680
X307971Y148680
X307971Y138680
X337971Y138680
X337971Y148680
X337971Y158680
X337971Y168680
X337971Y178680
X337971Y188680
X337971Y198680
X337971Y208680
T03
X213404Y204624
X213404Y194624
X213404Y184624
X213404Y174624
X213404Y164624
X213404Y154624
X213404Y144624
X213404Y134624
X213404Y124624
X213404Y114624
X213404Y104624
X153404Y104624
X153404Y114624
X153404Y124624
X153404Y134624
X153404Y144624
X153404Y154624
X153404Y164624
X153404Y174624
X153404Y184624
X153404Y194624
X153404Y204624
X153404Y214624
X153404Y224624
X153404Y234624
X153404Y244624
X153404Y254624
X153404Y264624
X153404Y274624
X153404Y284624
X153404Y294624
X213404Y294624
X213404Y284624
X213404Y274624
X213404Y264624
X213404Y254624
X213404Y244624
X213404Y234624
X213404Y224624
X213404Y214624
T04
X286239Y108798
X305924Y108798
X68719Y353089
X49034Y353089
T05
X131554Y294309
X131554Y284309
X131554Y274309
X131554Y264309
X131554Y254309
X131554Y244309
X131554Y234309
X131554Y224309
X131554Y214309
X131554Y204309
X131554Y194309
X131554Y184309
X131554Y174309
X131554Y164309
X131554Y154309
X131554Y144309
X131554Y134309
X131554Y124309
X131554Y114309
X131554Y104309
X223010Y63876
X223010Y43876
X233955Y104782
X233955Y114782
X233955Y124782
X233955Y134782
X233955Y144782
X233955Y154782
X233955Y164782
X233955Y174782
X233955Y184782
X233955Y194782
X233955Y204782
X233955Y214782
X233955Y224782
X233955Y234782
X233955Y244782
X233955Y254782
X233955Y264782
X233955Y274782
X233955Y284782
X233955Y294782
X197302Y340215
X187302Y340215
X177302Y340215
X167302Y340215
X157302Y340215
X147302Y340215
X279624Y169585
X279624Y159585
X361987Y168128
X361987Y178128
T06
X83050Y317774
X57459Y317774
T07
X14900Y15136
X15097Y381396
X381514Y381554
X381554Y14900
M30
