G75*
%MOIN*%
%OFA0B0*%
%FSLAX25Y25*%
%IPPOS*%
%LPD*%
%AMOC8*
5,1,8,0,0,1.08239X$1,22.5*
%
%ADD10OC8,0.06000*%
%ADD11C,0.10800*%
%ADD12OC8,0.10800*%
%ADD13C,0.05200*%
%ADD14C,0.08477*%
%ADD15R,0.06700X0.06700*%
%ADD16C,0.06700*%
%ADD17C,0.06800*%
%ADD18OC8,0.08674*%
%ADD19C,0.06000*%
%ADD20C,0.27800*%
D10*
X0057380Y0170963D03*
X0077380Y0170963D03*
X0076081Y0195727D03*
X0056081Y0195727D03*
X0070018Y0250018D03*
X0080018Y0250018D03*
X0085491Y0262183D03*
X0078876Y0270057D03*
X0086711Y0274113D03*
X0087931Y0284979D03*
X0077931Y0291002D03*
X0067931Y0291002D03*
X0087026Y0296987D03*
X0102656Y0317695D03*
X0117026Y0296987D03*
X0117931Y0284979D03*
X0116711Y0274113D03*
X0115491Y0262183D03*
X0068876Y0270057D03*
X0102656Y0347695D03*
D11*
X0223010Y0043876D03*
D12*
X0223010Y0063876D03*
D13*
X0103242Y0161435D02*
X0098842Y0161435D01*
X0098842Y0181435D02*
X0103242Y0181435D01*
D14*
X0086888Y0317774D02*
X0079211Y0317774D01*
X0061298Y0317774D02*
X0053620Y0317774D01*
D15*
X0153404Y0294624D03*
D16*
X0153404Y0284624D03*
X0153404Y0274624D03*
X0153404Y0264624D03*
X0153404Y0254624D03*
X0153404Y0244624D03*
X0153404Y0234624D03*
X0153404Y0224624D03*
X0153404Y0214624D03*
X0153404Y0204624D03*
X0153404Y0194624D03*
X0153404Y0184624D03*
X0153404Y0174624D03*
X0153404Y0164624D03*
X0153404Y0154624D03*
X0153404Y0144624D03*
X0153404Y0134624D03*
X0153404Y0124624D03*
X0153404Y0114624D03*
X0153404Y0104624D03*
X0213404Y0104624D03*
X0213404Y0114624D03*
X0213404Y0124624D03*
X0213404Y0134624D03*
X0213404Y0144624D03*
X0213404Y0154624D03*
X0213404Y0164624D03*
X0213404Y0174624D03*
X0213404Y0184624D03*
X0213404Y0194624D03*
X0213404Y0204624D03*
X0213404Y0214624D03*
X0213404Y0224624D03*
X0213404Y0234624D03*
X0213404Y0244624D03*
X0213404Y0254624D03*
X0213404Y0264624D03*
X0213404Y0274624D03*
X0213404Y0284624D03*
X0213404Y0294624D03*
D17*
X0230955Y0294782D02*
X0236955Y0294782D01*
X0236955Y0284782D02*
X0230955Y0284782D01*
X0230955Y0274782D02*
X0236955Y0274782D01*
X0236955Y0264782D02*
X0230955Y0264782D01*
X0230955Y0254782D02*
X0236955Y0254782D01*
X0236955Y0244782D02*
X0230955Y0244782D01*
X0230955Y0234782D02*
X0236955Y0234782D01*
X0236955Y0224782D02*
X0230955Y0224782D01*
X0230955Y0214782D02*
X0236955Y0214782D01*
X0236955Y0204782D02*
X0230955Y0204782D01*
X0230955Y0194782D02*
X0236955Y0194782D01*
X0236955Y0184782D02*
X0230955Y0184782D01*
X0230955Y0174782D02*
X0236955Y0174782D01*
X0236955Y0164782D02*
X0230955Y0164782D01*
X0230955Y0154782D02*
X0236955Y0154782D01*
X0236955Y0144782D02*
X0230955Y0144782D01*
X0230955Y0134782D02*
X0236955Y0134782D01*
X0236955Y0124782D02*
X0230955Y0124782D01*
X0230955Y0114782D02*
X0236955Y0114782D01*
X0236955Y0104782D02*
X0230955Y0104782D01*
X0276624Y0159585D02*
X0282624Y0159585D01*
X0282624Y0169585D02*
X0276624Y0169585D01*
X0358987Y0168128D02*
X0364987Y0168128D01*
X0364987Y0178128D02*
X0358987Y0178128D01*
X0197302Y0337215D02*
X0197302Y0343215D01*
X0187302Y0343215D02*
X0187302Y0337215D01*
X0177302Y0337215D02*
X0177302Y0343215D01*
X0167302Y0343215D02*
X0167302Y0337215D01*
X0157302Y0337215D02*
X0157302Y0343215D01*
X0147302Y0343215D02*
X0147302Y0337215D01*
X0134554Y0294309D02*
X0128554Y0294309D01*
X0128554Y0284309D02*
X0134554Y0284309D01*
X0134554Y0274309D02*
X0128554Y0274309D01*
X0128554Y0264309D02*
X0134554Y0264309D01*
X0134554Y0254309D02*
X0128554Y0254309D01*
X0128554Y0244309D02*
X0134554Y0244309D01*
X0134554Y0234309D02*
X0128554Y0234309D01*
X0128554Y0224309D02*
X0134554Y0224309D01*
X0134554Y0214309D02*
X0128554Y0214309D01*
X0128554Y0204309D02*
X0134554Y0204309D01*
X0134554Y0194309D02*
X0128554Y0194309D01*
X0128554Y0184309D02*
X0134554Y0184309D01*
X0134554Y0174309D02*
X0128554Y0174309D01*
X0128554Y0164309D02*
X0134554Y0164309D01*
X0134554Y0154309D02*
X0128554Y0154309D01*
X0128554Y0144309D02*
X0134554Y0144309D01*
X0134554Y0134309D02*
X0128554Y0134309D01*
X0128554Y0124309D02*
X0134554Y0124309D01*
X0134554Y0114309D02*
X0128554Y0114309D01*
X0128554Y0104309D02*
X0134554Y0104309D01*
D18*
X0286239Y0108798D03*
X0305924Y0108798D03*
X0068719Y0353089D03*
X0049034Y0353089D03*
D19*
X0305371Y0208680D02*
X0310571Y0208680D01*
X0310571Y0198680D02*
X0305371Y0198680D01*
X0305371Y0188680D02*
X0310571Y0188680D01*
X0310571Y0178680D02*
X0305371Y0178680D01*
X0305371Y0168680D02*
X0310571Y0168680D01*
X0310571Y0158680D02*
X0305371Y0158680D01*
X0305371Y0148680D02*
X0310571Y0148680D01*
X0310571Y0138680D02*
X0305371Y0138680D01*
X0335371Y0138680D02*
X0340571Y0138680D01*
X0340571Y0148680D02*
X0335371Y0148680D01*
X0335371Y0158680D02*
X0340571Y0158680D01*
X0340571Y0168680D02*
X0335371Y0168680D01*
X0335371Y0178680D02*
X0340571Y0178680D01*
X0340571Y0188680D02*
X0335371Y0188680D01*
X0335371Y0198680D02*
X0340571Y0198680D01*
X0340571Y0208680D02*
X0335371Y0208680D01*
D20*
X0014900Y0015136D03*
X0015097Y0381396D03*
X0381514Y0381554D03*
X0381554Y0014900D03*
M02*
