G75*
%MOIN*%
%OFA0B0*%
%FSLAX25Y25*%
%IPPOS*%
%LPD*%
%AMOC8*
5,1,8,0,0,1.08239X$1,22.5*
%
%ADD10C,0.00600*%
%ADD11OC8,0.05200*%
%ADD12C,0.10000*%
%ADD13OC8,0.10000*%
%ADD14C,0.04400*%
%ADD15C,0.07677*%
%ADD16R,0.05900X0.05900*%
%ADD17C,0.05900*%
%ADD18C,0.06000*%
%ADD19OC8,0.07874*%
%ADD20C,0.05200*%
%ADD21C,0.27000*%
%ADD22C,0.05000*%
D10*
X0182405Y0007011D02*
X0184540Y0007011D01*
X0183472Y0007011D02*
X0183472Y0013416D01*
X0182405Y0013416D02*
X0184540Y0013416D01*
X0186702Y0011281D02*
X0189904Y0011281D01*
X0190972Y0010214D01*
X0190972Y0007011D01*
X0193147Y0008079D02*
X0194215Y0007011D01*
X0197418Y0007011D01*
X0197418Y0005943D02*
X0197418Y0011281D01*
X0194215Y0011281D01*
X0193147Y0010214D01*
X0193147Y0008079D01*
X0195282Y0004876D02*
X0196350Y0004876D01*
X0197418Y0005943D01*
X0199593Y0007011D02*
X0199593Y0008079D01*
X0200660Y0008079D01*
X0200660Y0007011D01*
X0199593Y0007011D01*
X0209261Y0008079D02*
X0209261Y0012349D01*
X0210329Y0013416D01*
X0212464Y0013416D01*
X0213531Y0012349D01*
X0213531Y0008079D01*
X0212464Y0007011D01*
X0210329Y0007011D01*
X0209261Y0008079D01*
X0215706Y0007011D02*
X0218909Y0007011D01*
X0219977Y0008079D01*
X0218909Y0009146D01*
X0216774Y0009146D01*
X0215706Y0010214D01*
X0216774Y0011281D01*
X0219977Y0011281D01*
X0222152Y0010214D02*
X0222152Y0008079D01*
X0223220Y0007011D01*
X0226422Y0007011D01*
X0228597Y0008079D02*
X0229665Y0007011D01*
X0232868Y0007011D01*
X0232868Y0010214D01*
X0231800Y0011281D01*
X0229665Y0011281D01*
X0229665Y0009146D02*
X0232868Y0009146D01*
X0235043Y0009146D02*
X0237178Y0011281D01*
X0238246Y0011281D01*
X0235043Y0011281D02*
X0235043Y0007011D01*
X0229665Y0009146D02*
X0228597Y0008079D01*
X0226422Y0011281D02*
X0223220Y0011281D01*
X0222152Y0010214D01*
X0246860Y0012349D02*
X0246860Y0008079D01*
X0247927Y0007011D01*
X0250062Y0007011D01*
X0251130Y0008079D01*
X0253305Y0008079D02*
X0254373Y0009146D01*
X0257576Y0009146D01*
X0257576Y0010214D02*
X0257576Y0007011D01*
X0254373Y0007011D01*
X0253305Y0008079D01*
X0254373Y0011281D02*
X0256508Y0011281D01*
X0257576Y0010214D01*
X0259751Y0011281D02*
X0259751Y0007011D01*
X0259751Y0009146D02*
X0261886Y0011281D01*
X0262953Y0011281D01*
X0265122Y0011281D02*
X0267257Y0007011D01*
X0269392Y0011281D01*
X0272635Y0011281D02*
X0274770Y0011281D01*
X0275838Y0010214D01*
X0275838Y0007011D01*
X0272635Y0007011D01*
X0271567Y0008079D01*
X0272635Y0009146D01*
X0275838Y0009146D01*
X0278013Y0004876D02*
X0279080Y0004876D01*
X0280148Y0005943D01*
X0280148Y0011281D01*
X0280148Y0013416D02*
X0280148Y0014484D01*
X0283377Y0011281D02*
X0285513Y0011281D01*
X0286580Y0010214D01*
X0286580Y0007011D01*
X0283377Y0007011D01*
X0282310Y0008079D01*
X0283377Y0009146D01*
X0286580Y0009146D01*
X0288755Y0007011D02*
X0290891Y0007011D01*
X0289823Y0007011D02*
X0289823Y0013416D01*
X0288755Y0013416D01*
X0251130Y0012349D02*
X0250062Y0013416D01*
X0247927Y0013416D01*
X0246860Y0012349D01*
X0186702Y0011281D02*
X0186702Y0007011D01*
D11*
X0077380Y0170963D03*
X0057380Y0170963D03*
X0056081Y0195727D03*
X0076081Y0195727D03*
X0080018Y0250018D03*
X0070018Y0250018D03*
X0085491Y0262183D03*
X0078876Y0270057D03*
X0086711Y0274113D03*
X0087931Y0284979D03*
X0077931Y0291002D03*
X0067931Y0291002D03*
X0087026Y0296987D03*
X0102656Y0317695D03*
X0117026Y0296987D03*
X0117931Y0284979D03*
X0116711Y0274113D03*
X0115491Y0262183D03*
X0068876Y0270057D03*
X0102656Y0347695D03*
D12*
X0223010Y0043876D03*
D13*
X0223010Y0063876D03*
D14*
X0103242Y0161435D02*
X0098842Y0161435D01*
X0098842Y0181435D02*
X0103242Y0181435D01*
D15*
X0086888Y0317774D02*
X0079211Y0317774D01*
X0061298Y0317774D02*
X0053620Y0317774D01*
D16*
X0153404Y0294624D03*
D17*
X0153404Y0284624D03*
X0153404Y0274624D03*
X0153404Y0264624D03*
X0153404Y0254624D03*
X0153404Y0244624D03*
X0153404Y0234624D03*
X0153404Y0224624D03*
X0153404Y0214624D03*
X0153404Y0204624D03*
X0153404Y0194624D03*
X0153404Y0184624D03*
X0153404Y0174624D03*
X0153404Y0164624D03*
X0153404Y0154624D03*
X0153404Y0144624D03*
X0153404Y0134624D03*
X0153404Y0124624D03*
X0153404Y0114624D03*
X0153404Y0104624D03*
X0213404Y0104624D03*
X0213404Y0114624D03*
X0213404Y0124624D03*
X0213404Y0134624D03*
X0213404Y0144624D03*
X0213404Y0154624D03*
X0213404Y0164624D03*
X0213404Y0174624D03*
X0213404Y0184624D03*
X0213404Y0194624D03*
X0213404Y0204624D03*
X0213404Y0214624D03*
X0213404Y0224624D03*
X0213404Y0234624D03*
X0213404Y0244624D03*
X0213404Y0254624D03*
X0213404Y0264624D03*
X0213404Y0274624D03*
X0213404Y0284624D03*
X0213404Y0294624D03*
D18*
X0230955Y0294782D02*
X0236955Y0294782D01*
X0236955Y0284782D02*
X0230955Y0284782D01*
X0230955Y0274782D02*
X0236955Y0274782D01*
X0236955Y0264782D02*
X0230955Y0264782D01*
X0230955Y0254782D02*
X0236955Y0254782D01*
X0236955Y0244782D02*
X0230955Y0244782D01*
X0230955Y0234782D02*
X0236955Y0234782D01*
X0236955Y0224782D02*
X0230955Y0224782D01*
X0230955Y0214782D02*
X0236955Y0214782D01*
X0236955Y0204782D02*
X0230955Y0204782D01*
X0230955Y0194782D02*
X0236955Y0194782D01*
X0236955Y0184782D02*
X0230955Y0184782D01*
X0230955Y0174782D02*
X0236955Y0174782D01*
X0236955Y0164782D02*
X0230955Y0164782D01*
X0230955Y0154782D02*
X0236955Y0154782D01*
X0236955Y0144782D02*
X0230955Y0144782D01*
X0230955Y0134782D02*
X0236955Y0134782D01*
X0236955Y0124782D02*
X0230955Y0124782D01*
X0230955Y0114782D02*
X0236955Y0114782D01*
X0236955Y0104782D02*
X0230955Y0104782D01*
X0276624Y0159585D02*
X0282624Y0159585D01*
X0282624Y0169585D02*
X0276624Y0169585D01*
X0358987Y0168128D02*
X0364987Y0168128D01*
X0364987Y0178128D02*
X0358987Y0178128D01*
X0197302Y0337215D02*
X0197302Y0343215D01*
X0187302Y0343215D02*
X0187302Y0337215D01*
X0177302Y0337215D02*
X0177302Y0343215D01*
X0167302Y0343215D02*
X0167302Y0337215D01*
X0157302Y0337215D02*
X0157302Y0343215D01*
X0147302Y0343215D02*
X0147302Y0337215D01*
X0134554Y0294309D02*
X0128554Y0294309D01*
X0128554Y0284309D02*
X0134554Y0284309D01*
X0134554Y0274309D02*
X0128554Y0274309D01*
X0128554Y0264309D02*
X0134554Y0264309D01*
X0134554Y0254309D02*
X0128554Y0254309D01*
X0128554Y0244309D02*
X0134554Y0244309D01*
X0134554Y0234309D02*
X0128554Y0234309D01*
X0128554Y0224309D02*
X0134554Y0224309D01*
X0134554Y0214309D02*
X0128554Y0214309D01*
X0128554Y0204309D02*
X0134554Y0204309D01*
X0134554Y0194309D02*
X0128554Y0194309D01*
X0128554Y0184309D02*
X0134554Y0184309D01*
X0134554Y0174309D02*
X0128554Y0174309D01*
X0128554Y0164309D02*
X0134554Y0164309D01*
X0134554Y0154309D02*
X0128554Y0154309D01*
X0128554Y0144309D02*
X0134554Y0144309D01*
X0134554Y0134309D02*
X0128554Y0134309D01*
X0128554Y0124309D02*
X0134554Y0124309D01*
X0134554Y0114309D02*
X0128554Y0114309D01*
X0128554Y0104309D02*
X0134554Y0104309D01*
D19*
X0286239Y0108798D03*
X0305924Y0108798D03*
X0068719Y0353089D03*
X0049034Y0353089D03*
D20*
X0305371Y0208680D02*
X0310571Y0208680D01*
X0310571Y0198680D02*
X0305371Y0198680D01*
X0305371Y0188680D02*
X0310571Y0188680D01*
X0310571Y0178680D02*
X0305371Y0178680D01*
X0305371Y0168680D02*
X0310571Y0168680D01*
X0310571Y0158680D02*
X0305371Y0158680D01*
X0305371Y0148680D02*
X0310571Y0148680D01*
X0310571Y0138680D02*
X0305371Y0138680D01*
X0335371Y0138680D02*
X0340571Y0138680D01*
X0340571Y0148680D02*
X0335371Y0148680D01*
X0335371Y0158680D02*
X0340571Y0158680D01*
X0340571Y0168680D02*
X0335371Y0168680D01*
X0335371Y0178680D02*
X0340571Y0178680D01*
X0340571Y0188680D02*
X0335371Y0188680D01*
X0335371Y0198680D02*
X0340571Y0198680D01*
X0340571Y0208680D02*
X0335371Y0208680D01*
D21*
X0014900Y0015136D03*
X0015097Y0381396D03*
X0381514Y0381554D03*
X0381554Y0014900D03*
D22*
X0349939Y0024861D02*
X0099546Y0024861D01*
X0078483Y0045924D01*
X0078483Y0111081D01*
X0099900Y0132498D01*
X0101475Y0132498D01*
X0104191Y0135215D01*
X0130648Y0135215D01*
X0131554Y0134309D01*
X0194939Y0115333D02*
X0194939Y0110372D01*
X0206672Y0098640D01*
X0206672Y0093246D01*
X0218837Y0079428D01*
X0372341Y0077774D01*
X0371790Y0090845D01*
X0375727Y0180057D01*
X0370372Y0198680D01*
X0337971Y0198680D01*
X0337971Y0208680D02*
X0332892Y0208680D01*
X0325215Y0201002D01*
X0325215Y0148246D01*
X0317538Y0140569D01*
X0309861Y0140569D01*
X0307971Y0138680D02*
X0305924Y0136632D01*
X0305924Y0108798D01*
X0337971Y0148680D02*
X0350924Y0148680D01*
X0352183Y0139624D01*
X0352065Y0124073D01*
X0353050Y0087892D01*
X0256042Y0088207D01*
X0251514Y0125018D01*
X0234191Y0125018D01*
X0233955Y0124782D01*
X0213404Y0114624D02*
X0211869Y0113089D01*
X0205530Y0113089D01*
X0201475Y0117144D01*
X0196750Y0117144D01*
X0194939Y0115333D01*
X0234861Y0193876D02*
X0233955Y0194782D01*
X0234861Y0193876D02*
X0259349Y0193876D01*
X0264152Y0198680D01*
X0307971Y0198680D01*
X0307971Y0208680D02*
X0307971Y0225018D01*
X0330097Y0247144D01*
X0356160Y0247144D01*
X0388128Y0215176D01*
X0388128Y0063050D01*
X0349939Y0024861D01*
X0307971Y0158680D02*
X0279624Y0159585D01*
X0279624Y0169585D02*
X0279624Y0178876D01*
X0288010Y0187262D01*
X0306554Y0187262D01*
X0307971Y0188680D01*
M02*
