G75*
%MOIN*%
%OFA0B0*%
%FSLAX25Y25*%
%IPPOS*%
%LPD*%
%AMOC8*
5,1,8,0,0,1.08239X$1,22.5*
%
%ADD10C,0.00000*%
%ADD11C,0.01200*%
%ADD12C,0.00600*%
%ADD13C,0.00500*%
%ADD14R,0.09000X0.02500*%
%ADD15C,0.01000*%
%ADD16C,0.00200*%
%ADD17C,0.00400*%
%ADD18R,0.02000X0.01500*%
%ADD19R,0.01500X0.02000*%
%ADD20C,0.00800*%
%ADD21C,0.00300*%
D10*
X0001357Y0001475D02*
X0001357Y0395176D01*
X0395057Y0395176D01*
X0395057Y0001475D01*
X0001357Y0001475D01*
X0182204Y0304424D02*
X0182206Y0304355D01*
X0182212Y0304287D01*
X0182222Y0304219D01*
X0182235Y0304152D01*
X0182253Y0304086D01*
X0182274Y0304021D01*
X0182299Y0303957D01*
X0182327Y0303895D01*
X0182359Y0303834D01*
X0182394Y0303775D01*
X0182433Y0303719D01*
X0182475Y0303664D01*
X0182520Y0303613D01*
X0182568Y0303563D01*
X0182618Y0303517D01*
X0182671Y0303474D01*
X0182727Y0303433D01*
X0182784Y0303396D01*
X0182844Y0303363D01*
X0182906Y0303332D01*
X0182969Y0303306D01*
X0183033Y0303283D01*
X0183099Y0303263D01*
X0183166Y0303248D01*
X0183233Y0303236D01*
X0183301Y0303228D01*
X0183370Y0303224D01*
X0183438Y0303224D01*
X0183507Y0303228D01*
X0183575Y0303236D01*
X0183642Y0303248D01*
X0183709Y0303263D01*
X0183775Y0303283D01*
X0183839Y0303306D01*
X0183902Y0303332D01*
X0183964Y0303363D01*
X0184024Y0303396D01*
X0184081Y0303433D01*
X0184137Y0303474D01*
X0184190Y0303517D01*
X0184240Y0303563D01*
X0184288Y0303613D01*
X0184333Y0303664D01*
X0184375Y0303719D01*
X0184414Y0303775D01*
X0184449Y0303834D01*
X0184481Y0303895D01*
X0184509Y0303957D01*
X0184534Y0304021D01*
X0184555Y0304086D01*
X0184573Y0304152D01*
X0184586Y0304219D01*
X0184596Y0304287D01*
X0184602Y0304355D01*
X0184604Y0304424D01*
D11*
X0067381Y0198227D02*
X0067381Y0195727D01*
X0067381Y0193227D01*
X0064881Y0193227D02*
X0064881Y0195727D01*
X0064881Y0198227D01*
X0066180Y0173463D02*
X0066180Y0170963D01*
X0066180Y0168463D01*
X0068680Y0168463D02*
X0068680Y0170963D01*
X0068680Y0173463D01*
D12*
X0068680Y0170963D02*
X0073380Y0170963D01*
X0066180Y0170963D02*
X0061380Y0170963D01*
X0053880Y0175963D02*
X0053820Y0175961D01*
X0053759Y0175956D01*
X0053700Y0175947D01*
X0053641Y0175934D01*
X0053582Y0175918D01*
X0053525Y0175898D01*
X0053470Y0175875D01*
X0053415Y0175848D01*
X0053363Y0175819D01*
X0053312Y0175786D01*
X0053263Y0175750D01*
X0053217Y0175712D01*
X0053173Y0175670D01*
X0053131Y0175626D01*
X0053093Y0175580D01*
X0053057Y0175531D01*
X0053024Y0175480D01*
X0052995Y0175428D01*
X0052968Y0175373D01*
X0052945Y0175318D01*
X0052925Y0175261D01*
X0052909Y0175202D01*
X0052896Y0175143D01*
X0052887Y0175084D01*
X0052882Y0175023D01*
X0052880Y0174963D01*
X0052880Y0166963D01*
X0052882Y0166903D01*
X0052887Y0166842D01*
X0052896Y0166783D01*
X0052909Y0166724D01*
X0052925Y0166665D01*
X0052945Y0166608D01*
X0052968Y0166553D01*
X0052995Y0166498D01*
X0053024Y0166446D01*
X0053057Y0166395D01*
X0053093Y0166346D01*
X0053131Y0166300D01*
X0053173Y0166256D01*
X0053217Y0166214D01*
X0053263Y0166176D01*
X0053312Y0166140D01*
X0053363Y0166107D01*
X0053415Y0166078D01*
X0053470Y0166051D01*
X0053525Y0166028D01*
X0053582Y0166008D01*
X0053641Y0165992D01*
X0053700Y0165979D01*
X0053759Y0165970D01*
X0053820Y0165965D01*
X0053880Y0165963D01*
X0080880Y0165963D01*
X0080940Y0165965D01*
X0081001Y0165970D01*
X0081060Y0165979D01*
X0081119Y0165992D01*
X0081178Y0166008D01*
X0081235Y0166028D01*
X0081290Y0166051D01*
X0081345Y0166078D01*
X0081397Y0166107D01*
X0081448Y0166140D01*
X0081497Y0166176D01*
X0081543Y0166214D01*
X0081587Y0166256D01*
X0081629Y0166300D01*
X0081667Y0166346D01*
X0081703Y0166395D01*
X0081736Y0166446D01*
X0081765Y0166498D01*
X0081792Y0166553D01*
X0081815Y0166608D01*
X0081835Y0166665D01*
X0081851Y0166724D01*
X0081864Y0166783D01*
X0081873Y0166842D01*
X0081878Y0166903D01*
X0081880Y0166963D01*
X0081880Y0174963D01*
X0081878Y0175023D01*
X0081873Y0175084D01*
X0081864Y0175143D01*
X0081851Y0175202D01*
X0081835Y0175261D01*
X0081815Y0175318D01*
X0081792Y0175373D01*
X0081765Y0175428D01*
X0081736Y0175480D01*
X0081703Y0175531D01*
X0081667Y0175580D01*
X0081629Y0175626D01*
X0081587Y0175670D01*
X0081543Y0175712D01*
X0081497Y0175750D01*
X0081448Y0175786D01*
X0081397Y0175819D01*
X0081345Y0175848D01*
X0081290Y0175875D01*
X0081235Y0175898D01*
X0081178Y0175918D01*
X0081119Y0175934D01*
X0081060Y0175947D01*
X0081001Y0175956D01*
X0080940Y0175961D01*
X0080880Y0175963D01*
X0053880Y0175963D01*
X0052581Y0190727D02*
X0079581Y0190727D01*
X0079641Y0190729D01*
X0079702Y0190734D01*
X0079761Y0190743D01*
X0079820Y0190756D01*
X0079879Y0190772D01*
X0079936Y0190792D01*
X0079991Y0190815D01*
X0080046Y0190842D01*
X0080098Y0190871D01*
X0080149Y0190904D01*
X0080198Y0190940D01*
X0080244Y0190978D01*
X0080288Y0191020D01*
X0080330Y0191064D01*
X0080368Y0191110D01*
X0080404Y0191159D01*
X0080437Y0191210D01*
X0080466Y0191262D01*
X0080493Y0191317D01*
X0080516Y0191372D01*
X0080536Y0191429D01*
X0080552Y0191488D01*
X0080565Y0191547D01*
X0080574Y0191606D01*
X0080579Y0191667D01*
X0080581Y0191727D01*
X0080581Y0199727D01*
X0080579Y0199787D01*
X0080574Y0199848D01*
X0080565Y0199907D01*
X0080552Y0199966D01*
X0080536Y0200025D01*
X0080516Y0200082D01*
X0080493Y0200137D01*
X0080466Y0200192D01*
X0080437Y0200244D01*
X0080404Y0200295D01*
X0080368Y0200344D01*
X0080330Y0200390D01*
X0080288Y0200434D01*
X0080244Y0200476D01*
X0080198Y0200514D01*
X0080149Y0200550D01*
X0080098Y0200583D01*
X0080046Y0200612D01*
X0079991Y0200639D01*
X0079936Y0200662D01*
X0079879Y0200682D01*
X0079820Y0200698D01*
X0079761Y0200711D01*
X0079702Y0200720D01*
X0079641Y0200725D01*
X0079581Y0200727D01*
X0052581Y0200727D01*
X0052521Y0200725D01*
X0052460Y0200720D01*
X0052401Y0200711D01*
X0052342Y0200698D01*
X0052283Y0200682D01*
X0052226Y0200662D01*
X0052171Y0200639D01*
X0052116Y0200612D01*
X0052064Y0200583D01*
X0052013Y0200550D01*
X0051964Y0200514D01*
X0051918Y0200476D01*
X0051874Y0200434D01*
X0051832Y0200390D01*
X0051794Y0200344D01*
X0051758Y0200295D01*
X0051725Y0200244D01*
X0051696Y0200192D01*
X0051669Y0200137D01*
X0051646Y0200082D01*
X0051626Y0200025D01*
X0051610Y0199966D01*
X0051597Y0199907D01*
X0051588Y0199848D01*
X0051583Y0199787D01*
X0051581Y0199727D01*
X0051581Y0191727D01*
X0051583Y0191667D01*
X0051588Y0191606D01*
X0051597Y0191547D01*
X0051610Y0191488D01*
X0051626Y0191429D01*
X0051646Y0191372D01*
X0051669Y0191317D01*
X0051696Y0191262D01*
X0051725Y0191210D01*
X0051758Y0191159D01*
X0051794Y0191110D01*
X0051832Y0191064D01*
X0051874Y0191020D01*
X0051918Y0190978D01*
X0051964Y0190940D01*
X0052013Y0190904D01*
X0052064Y0190871D01*
X0052116Y0190842D01*
X0052171Y0190815D01*
X0052226Y0190792D01*
X0052283Y0190772D01*
X0052342Y0190756D01*
X0052401Y0190743D01*
X0052460Y0190734D01*
X0052521Y0190729D01*
X0052581Y0190727D01*
X0060081Y0195727D02*
X0064881Y0195727D01*
X0067381Y0195727D02*
X0072081Y0195727D01*
X0092042Y0184935D02*
X0092042Y0157935D01*
X0092045Y0157716D01*
X0092053Y0157497D01*
X0092066Y0157278D01*
X0092085Y0157060D01*
X0092109Y0156842D01*
X0092138Y0156625D01*
X0092172Y0156408D01*
X0092212Y0156193D01*
X0092257Y0155978D01*
X0092308Y0155765D01*
X0092363Y0155553D01*
X0092424Y0155342D01*
X0092489Y0155133D01*
X0092560Y0154926D01*
X0092636Y0154720D01*
X0092717Y0154516D01*
X0092802Y0154314D01*
X0092893Y0154115D01*
X0092988Y0153918D01*
X0093089Y0153723D01*
X0093194Y0153530D01*
X0093303Y0153340D01*
X0093417Y0153153D01*
X0093536Y0152969D01*
X0093659Y0152788D01*
X0093787Y0152610D01*
X0093919Y0152434D01*
X0094055Y0152263D01*
X0094195Y0152094D01*
X0094339Y0151929D01*
X0094487Y0151768D01*
X0094639Y0151610D01*
X0094795Y0151456D01*
X0094955Y0151306D01*
X0095118Y0151159D01*
X0095285Y0151017D01*
X0095455Y0150879D01*
X0095629Y0150745D01*
X0095805Y0150615D01*
X0095985Y0150490D01*
X0096168Y0150369D01*
X0096354Y0150253D01*
X0096542Y0150141D01*
X0096733Y0150034D01*
X0096927Y0149931D01*
X0097123Y0149833D01*
X0097321Y0149740D01*
X0097522Y0149652D01*
X0097725Y0149569D01*
X0097930Y0149490D01*
X0098136Y0149417D01*
X0098344Y0149349D01*
X0098554Y0149286D01*
X0098766Y0149228D01*
X0098978Y0149175D01*
X0099192Y0149127D01*
X0099407Y0149085D01*
X0099623Y0149048D01*
X0099840Y0149016D01*
X0100058Y0148989D01*
X0100276Y0148968D01*
X0100494Y0148952D01*
X0100713Y0148941D01*
X0100932Y0148936D01*
X0101152Y0148936D01*
X0101371Y0148941D01*
X0101590Y0148952D01*
X0101808Y0148968D01*
X0102026Y0148989D01*
X0102244Y0149016D01*
X0102461Y0149048D01*
X0102677Y0149085D01*
X0102892Y0149127D01*
X0103106Y0149175D01*
X0103318Y0149228D01*
X0103530Y0149286D01*
X0103740Y0149349D01*
X0103948Y0149417D01*
X0104154Y0149490D01*
X0104359Y0149569D01*
X0104562Y0149652D01*
X0104763Y0149740D01*
X0104961Y0149833D01*
X0105157Y0149931D01*
X0105351Y0150034D01*
X0105542Y0150141D01*
X0105730Y0150253D01*
X0105916Y0150369D01*
X0106099Y0150490D01*
X0106279Y0150615D01*
X0106455Y0150745D01*
X0106629Y0150879D01*
X0106799Y0151017D01*
X0106966Y0151159D01*
X0107129Y0151306D01*
X0107289Y0151456D01*
X0107445Y0151610D01*
X0107597Y0151768D01*
X0107745Y0151929D01*
X0107889Y0152094D01*
X0108029Y0152263D01*
X0108165Y0152434D01*
X0108297Y0152610D01*
X0108425Y0152788D01*
X0108548Y0152969D01*
X0108667Y0153153D01*
X0108781Y0153340D01*
X0108890Y0153530D01*
X0108995Y0153723D01*
X0109096Y0153918D01*
X0109191Y0154115D01*
X0109282Y0154314D01*
X0109367Y0154516D01*
X0109448Y0154720D01*
X0109524Y0154926D01*
X0109595Y0155133D01*
X0109660Y0155342D01*
X0109721Y0155553D01*
X0109776Y0155765D01*
X0109827Y0155978D01*
X0109872Y0156193D01*
X0109912Y0156408D01*
X0109946Y0156625D01*
X0109975Y0156842D01*
X0109999Y0157060D01*
X0110018Y0157278D01*
X0110031Y0157497D01*
X0110039Y0157716D01*
X0110042Y0157935D01*
X0110042Y0184935D01*
X0110039Y0185154D01*
X0110031Y0185373D01*
X0110018Y0185592D01*
X0109999Y0185810D01*
X0109975Y0186028D01*
X0109946Y0186245D01*
X0109912Y0186462D01*
X0109872Y0186677D01*
X0109827Y0186892D01*
X0109776Y0187105D01*
X0109721Y0187317D01*
X0109660Y0187528D01*
X0109595Y0187737D01*
X0109524Y0187944D01*
X0109448Y0188150D01*
X0109367Y0188354D01*
X0109282Y0188556D01*
X0109191Y0188755D01*
X0109096Y0188952D01*
X0108995Y0189147D01*
X0108890Y0189340D01*
X0108781Y0189530D01*
X0108667Y0189717D01*
X0108548Y0189901D01*
X0108425Y0190082D01*
X0108297Y0190260D01*
X0108165Y0190436D01*
X0108029Y0190607D01*
X0107889Y0190776D01*
X0107745Y0190941D01*
X0107597Y0191102D01*
X0107445Y0191260D01*
X0107289Y0191414D01*
X0107129Y0191564D01*
X0106966Y0191711D01*
X0106799Y0191853D01*
X0106629Y0191991D01*
X0106455Y0192125D01*
X0106279Y0192255D01*
X0106099Y0192380D01*
X0105916Y0192501D01*
X0105730Y0192617D01*
X0105542Y0192729D01*
X0105351Y0192836D01*
X0105157Y0192939D01*
X0104961Y0193037D01*
X0104763Y0193130D01*
X0104562Y0193218D01*
X0104359Y0193301D01*
X0104154Y0193380D01*
X0103948Y0193453D01*
X0103740Y0193521D01*
X0103530Y0193584D01*
X0103318Y0193642D01*
X0103106Y0193695D01*
X0102892Y0193743D01*
X0102677Y0193785D01*
X0102461Y0193822D01*
X0102244Y0193854D01*
X0102026Y0193881D01*
X0101808Y0193902D01*
X0101590Y0193918D01*
X0101371Y0193929D01*
X0101152Y0193934D01*
X0100932Y0193934D01*
X0100713Y0193929D01*
X0100494Y0193918D01*
X0100276Y0193902D01*
X0100058Y0193881D01*
X0099840Y0193854D01*
X0099623Y0193822D01*
X0099407Y0193785D01*
X0099192Y0193743D01*
X0098978Y0193695D01*
X0098766Y0193642D01*
X0098554Y0193584D01*
X0098344Y0193521D01*
X0098136Y0193453D01*
X0097930Y0193380D01*
X0097725Y0193301D01*
X0097522Y0193218D01*
X0097321Y0193130D01*
X0097123Y0193037D01*
X0096927Y0192939D01*
X0096733Y0192836D01*
X0096542Y0192729D01*
X0096354Y0192617D01*
X0096168Y0192501D01*
X0095985Y0192380D01*
X0095805Y0192255D01*
X0095629Y0192125D01*
X0095455Y0191991D01*
X0095285Y0191853D01*
X0095118Y0191711D01*
X0094955Y0191564D01*
X0094795Y0191414D01*
X0094639Y0191260D01*
X0094487Y0191102D01*
X0094339Y0190941D01*
X0094195Y0190776D01*
X0094055Y0190607D01*
X0093919Y0190436D01*
X0093787Y0190260D01*
X0093659Y0190082D01*
X0093536Y0189901D01*
X0093417Y0189717D01*
X0093303Y0189530D01*
X0093194Y0189340D01*
X0093089Y0189147D01*
X0092988Y0188952D01*
X0092893Y0188755D01*
X0092802Y0188556D01*
X0092717Y0188354D01*
X0092636Y0188150D01*
X0092560Y0187944D01*
X0092489Y0187737D01*
X0092424Y0187528D01*
X0092363Y0187317D01*
X0092308Y0187105D01*
X0092257Y0186892D01*
X0092212Y0186677D01*
X0092172Y0186462D01*
X0092138Y0186245D01*
X0092109Y0186028D01*
X0092085Y0185810D01*
X0092066Y0185592D01*
X0092053Y0185373D01*
X0092045Y0185154D01*
X0092042Y0184935D01*
X0126554Y0186809D02*
X0126554Y0181809D01*
X0129054Y0179309D01*
X0126554Y0176809D01*
X0126554Y0171809D01*
X0129054Y0169309D01*
X0126554Y0166809D01*
X0126554Y0161809D01*
X0129054Y0159309D01*
X0134054Y0159309D01*
X0136554Y0161809D01*
X0136554Y0166809D01*
X0134054Y0169309D01*
X0129054Y0169309D01*
X0134054Y0169309D02*
X0136554Y0171809D01*
X0136554Y0176809D01*
X0134054Y0179309D01*
X0129054Y0179309D01*
X0134054Y0179309D02*
X0136554Y0181809D01*
X0136554Y0186809D01*
X0134054Y0189309D01*
X0129054Y0189309D01*
X0126554Y0191809D01*
X0126554Y0196809D01*
X0129054Y0199309D01*
X0126554Y0201809D01*
X0126554Y0206809D01*
X0129054Y0209309D01*
X0126554Y0211809D01*
X0126554Y0216809D01*
X0129054Y0219309D01*
X0126554Y0221809D01*
X0126554Y0226809D01*
X0129054Y0229309D01*
X0126554Y0231809D01*
X0126554Y0236809D01*
X0129054Y0239309D01*
X0126554Y0241809D01*
X0126554Y0246809D01*
X0129054Y0249309D01*
X0126554Y0251809D01*
X0126554Y0256809D01*
X0129054Y0259309D01*
X0126554Y0261809D01*
X0126554Y0266809D01*
X0129054Y0269309D01*
X0126554Y0271809D01*
X0126554Y0276809D01*
X0129054Y0279309D01*
X0126554Y0281809D01*
X0126554Y0286809D01*
X0129054Y0289309D01*
X0126554Y0291809D01*
X0126554Y0296809D01*
X0129054Y0299309D01*
X0134054Y0299309D01*
X0136554Y0296809D01*
X0136554Y0291809D01*
X0134054Y0289309D01*
X0136554Y0286809D01*
X0136554Y0281809D01*
X0134054Y0279309D01*
X0129054Y0279309D01*
X0134054Y0279309D02*
X0136554Y0276809D01*
X0136554Y0271809D01*
X0134054Y0269309D01*
X0136554Y0266809D01*
X0136554Y0261809D01*
X0134054Y0259309D01*
X0136554Y0256809D01*
X0136554Y0251809D01*
X0134054Y0249309D01*
X0129054Y0249309D01*
X0134054Y0249309D02*
X0136554Y0246809D01*
X0136554Y0241809D01*
X0134054Y0239309D01*
X0136554Y0236809D01*
X0136554Y0231809D01*
X0134054Y0229309D01*
X0136554Y0226809D01*
X0136554Y0221809D01*
X0134054Y0219309D01*
X0129054Y0219309D01*
X0134054Y0219309D02*
X0136554Y0216809D01*
X0136554Y0211809D01*
X0134054Y0209309D01*
X0136554Y0206809D01*
X0136554Y0201809D01*
X0134054Y0199309D01*
X0136554Y0196809D01*
X0136554Y0191809D01*
X0134054Y0189309D01*
X0129054Y0189309D02*
X0126554Y0186809D01*
X0129054Y0199309D02*
X0134054Y0199309D01*
X0134054Y0209309D02*
X0129054Y0209309D01*
X0129054Y0229309D02*
X0134054Y0229309D01*
X0134054Y0239309D02*
X0129054Y0239309D01*
X0129054Y0259309D02*
X0134054Y0259309D01*
X0134054Y0269309D02*
X0129054Y0269309D01*
X0111711Y0271113D02*
X0111711Y0277113D01*
X0111709Y0277173D01*
X0111704Y0277234D01*
X0111695Y0277293D01*
X0111682Y0277352D01*
X0111666Y0277411D01*
X0111646Y0277468D01*
X0111623Y0277523D01*
X0111596Y0277578D01*
X0111567Y0277630D01*
X0111534Y0277681D01*
X0111498Y0277730D01*
X0111460Y0277776D01*
X0111418Y0277820D01*
X0111374Y0277862D01*
X0111328Y0277900D01*
X0111279Y0277936D01*
X0111228Y0277969D01*
X0111176Y0277998D01*
X0111121Y0278025D01*
X0111066Y0278048D01*
X0111009Y0278068D01*
X0110950Y0278084D01*
X0110891Y0278097D01*
X0110832Y0278106D01*
X0110771Y0278111D01*
X0110711Y0278113D01*
X0109211Y0278113D01*
X0108711Y0277613D01*
X0094711Y0277613D01*
X0094211Y0278113D01*
X0092711Y0278113D01*
X0092651Y0278111D01*
X0092590Y0278106D01*
X0092531Y0278097D01*
X0092472Y0278084D01*
X0092413Y0278068D01*
X0092356Y0278048D01*
X0092301Y0278025D01*
X0092246Y0277998D01*
X0092194Y0277969D01*
X0092143Y0277936D01*
X0092094Y0277900D01*
X0092048Y0277862D01*
X0092004Y0277820D01*
X0091962Y0277776D01*
X0091924Y0277730D01*
X0091888Y0277681D01*
X0091855Y0277630D01*
X0091826Y0277578D01*
X0091799Y0277523D01*
X0091776Y0277468D01*
X0091756Y0277411D01*
X0091740Y0277352D01*
X0091727Y0277293D01*
X0091718Y0277234D01*
X0091713Y0277173D01*
X0091711Y0277113D01*
X0091711Y0271113D01*
X0091713Y0271053D01*
X0091718Y0270992D01*
X0091727Y0270933D01*
X0091740Y0270874D01*
X0091756Y0270815D01*
X0091776Y0270758D01*
X0091799Y0270703D01*
X0091826Y0270648D01*
X0091855Y0270596D01*
X0091888Y0270545D01*
X0091924Y0270496D01*
X0091962Y0270450D01*
X0092004Y0270406D01*
X0092048Y0270364D01*
X0092094Y0270326D01*
X0092143Y0270290D01*
X0092194Y0270257D01*
X0092246Y0270228D01*
X0092301Y0270201D01*
X0092356Y0270178D01*
X0092413Y0270158D01*
X0092472Y0270142D01*
X0092531Y0270129D01*
X0092590Y0270120D01*
X0092651Y0270115D01*
X0092711Y0270113D01*
X0094211Y0270113D01*
X0094711Y0270613D01*
X0108711Y0270613D01*
X0109211Y0270113D01*
X0110711Y0270113D01*
X0110771Y0270115D01*
X0110832Y0270120D01*
X0110891Y0270129D01*
X0110950Y0270142D01*
X0111009Y0270158D01*
X0111066Y0270178D01*
X0111121Y0270201D01*
X0111176Y0270228D01*
X0111228Y0270257D01*
X0111279Y0270290D01*
X0111328Y0270326D01*
X0111374Y0270364D01*
X0111418Y0270406D01*
X0111460Y0270450D01*
X0111498Y0270496D01*
X0111534Y0270545D01*
X0111567Y0270596D01*
X0111596Y0270648D01*
X0111623Y0270703D01*
X0111646Y0270758D01*
X0111666Y0270815D01*
X0111682Y0270874D01*
X0111695Y0270933D01*
X0111704Y0270992D01*
X0111709Y0271053D01*
X0111711Y0271113D01*
X0109491Y0266183D02*
X0107991Y0266183D01*
X0107491Y0265683D01*
X0093491Y0265683D01*
X0092991Y0266183D01*
X0091491Y0266183D01*
X0091431Y0266181D01*
X0091370Y0266176D01*
X0091311Y0266167D01*
X0091252Y0266154D01*
X0091193Y0266138D01*
X0091136Y0266118D01*
X0091081Y0266095D01*
X0091026Y0266068D01*
X0090974Y0266039D01*
X0090923Y0266006D01*
X0090874Y0265970D01*
X0090828Y0265932D01*
X0090784Y0265890D01*
X0090742Y0265846D01*
X0090704Y0265800D01*
X0090668Y0265751D01*
X0090635Y0265700D01*
X0090606Y0265648D01*
X0090579Y0265593D01*
X0090556Y0265538D01*
X0090536Y0265481D01*
X0090520Y0265422D01*
X0090507Y0265363D01*
X0090498Y0265304D01*
X0090493Y0265243D01*
X0090491Y0265183D01*
X0090491Y0259183D01*
X0090493Y0259123D01*
X0090498Y0259062D01*
X0090507Y0259003D01*
X0090520Y0258944D01*
X0090536Y0258885D01*
X0090556Y0258828D01*
X0090579Y0258773D01*
X0090606Y0258718D01*
X0090635Y0258666D01*
X0090668Y0258615D01*
X0090704Y0258566D01*
X0090742Y0258520D01*
X0090784Y0258476D01*
X0090828Y0258434D01*
X0090874Y0258396D01*
X0090923Y0258360D01*
X0090974Y0258327D01*
X0091026Y0258298D01*
X0091081Y0258271D01*
X0091136Y0258248D01*
X0091193Y0258228D01*
X0091252Y0258212D01*
X0091311Y0258199D01*
X0091370Y0258190D01*
X0091431Y0258185D01*
X0091491Y0258183D01*
X0092991Y0258183D01*
X0093491Y0258683D01*
X0107491Y0258683D01*
X0107991Y0258183D01*
X0109491Y0258183D01*
X0109551Y0258185D01*
X0109612Y0258190D01*
X0109671Y0258199D01*
X0109730Y0258212D01*
X0109789Y0258228D01*
X0109846Y0258248D01*
X0109901Y0258271D01*
X0109956Y0258298D01*
X0110008Y0258327D01*
X0110059Y0258360D01*
X0110108Y0258396D01*
X0110154Y0258434D01*
X0110198Y0258476D01*
X0110240Y0258520D01*
X0110278Y0258566D01*
X0110314Y0258615D01*
X0110347Y0258666D01*
X0110376Y0258718D01*
X0110403Y0258773D01*
X0110426Y0258828D01*
X0110446Y0258885D01*
X0110462Y0258944D01*
X0110475Y0259003D01*
X0110484Y0259062D01*
X0110489Y0259123D01*
X0110491Y0259183D01*
X0110491Y0265183D01*
X0110489Y0265243D01*
X0110484Y0265304D01*
X0110475Y0265363D01*
X0110462Y0265422D01*
X0110446Y0265481D01*
X0110426Y0265538D01*
X0110403Y0265593D01*
X0110376Y0265648D01*
X0110347Y0265700D01*
X0110314Y0265751D01*
X0110278Y0265800D01*
X0110240Y0265846D01*
X0110198Y0265890D01*
X0110154Y0265932D01*
X0110108Y0265970D01*
X0110059Y0266006D01*
X0110008Y0266039D01*
X0109956Y0266068D01*
X0109901Y0266095D01*
X0109846Y0266118D01*
X0109789Y0266138D01*
X0109730Y0266154D01*
X0109671Y0266167D01*
X0109612Y0266176D01*
X0109551Y0266181D01*
X0109491Y0266183D01*
X0110431Y0280979D02*
X0111931Y0280979D01*
X0111991Y0280981D01*
X0112052Y0280986D01*
X0112111Y0280995D01*
X0112170Y0281008D01*
X0112229Y0281024D01*
X0112286Y0281044D01*
X0112341Y0281067D01*
X0112396Y0281094D01*
X0112448Y0281123D01*
X0112499Y0281156D01*
X0112548Y0281192D01*
X0112594Y0281230D01*
X0112638Y0281272D01*
X0112680Y0281316D01*
X0112718Y0281362D01*
X0112754Y0281411D01*
X0112787Y0281462D01*
X0112816Y0281514D01*
X0112843Y0281569D01*
X0112866Y0281624D01*
X0112886Y0281681D01*
X0112902Y0281740D01*
X0112915Y0281799D01*
X0112924Y0281858D01*
X0112929Y0281919D01*
X0112931Y0281979D01*
X0112931Y0287979D01*
X0112929Y0288039D01*
X0112924Y0288100D01*
X0112915Y0288159D01*
X0112902Y0288218D01*
X0112886Y0288277D01*
X0112866Y0288334D01*
X0112843Y0288389D01*
X0112816Y0288444D01*
X0112787Y0288496D01*
X0112754Y0288547D01*
X0112718Y0288596D01*
X0112680Y0288642D01*
X0112638Y0288686D01*
X0112594Y0288728D01*
X0112548Y0288766D01*
X0112499Y0288802D01*
X0112448Y0288835D01*
X0112396Y0288864D01*
X0112341Y0288891D01*
X0112286Y0288914D01*
X0112229Y0288934D01*
X0112170Y0288950D01*
X0112111Y0288963D01*
X0112052Y0288972D01*
X0111991Y0288977D01*
X0111931Y0288979D01*
X0110431Y0288979D01*
X0109931Y0288479D01*
X0095931Y0288479D01*
X0095431Y0288979D01*
X0093931Y0288979D01*
X0093871Y0288977D01*
X0093810Y0288972D01*
X0093751Y0288963D01*
X0093692Y0288950D01*
X0093633Y0288934D01*
X0093576Y0288914D01*
X0093521Y0288891D01*
X0093466Y0288864D01*
X0093414Y0288835D01*
X0093363Y0288802D01*
X0093314Y0288766D01*
X0093268Y0288728D01*
X0093224Y0288686D01*
X0093182Y0288642D01*
X0093144Y0288596D01*
X0093108Y0288547D01*
X0093075Y0288496D01*
X0093046Y0288444D01*
X0093019Y0288389D01*
X0092996Y0288334D01*
X0092976Y0288277D01*
X0092960Y0288218D01*
X0092947Y0288159D01*
X0092938Y0288100D01*
X0092933Y0288039D01*
X0092931Y0287979D01*
X0092931Y0281979D01*
X0092933Y0281919D01*
X0092938Y0281858D01*
X0092947Y0281799D01*
X0092960Y0281740D01*
X0092976Y0281681D01*
X0092996Y0281624D01*
X0093019Y0281569D01*
X0093046Y0281514D01*
X0093075Y0281462D01*
X0093108Y0281411D01*
X0093144Y0281362D01*
X0093182Y0281316D01*
X0093224Y0281272D01*
X0093268Y0281230D01*
X0093314Y0281192D01*
X0093363Y0281156D01*
X0093414Y0281123D01*
X0093466Y0281094D01*
X0093521Y0281067D01*
X0093576Y0281044D01*
X0093633Y0281024D01*
X0093692Y0281008D01*
X0093751Y0280995D01*
X0093810Y0280986D01*
X0093871Y0280981D01*
X0093931Y0280979D01*
X0095431Y0280979D01*
X0095931Y0281479D01*
X0109931Y0281479D01*
X0110431Y0280979D01*
X0111026Y0292987D02*
X0109526Y0292987D01*
X0109026Y0293487D01*
X0095026Y0293487D01*
X0094526Y0292987D01*
X0093026Y0292987D01*
X0092966Y0292989D01*
X0092905Y0292994D01*
X0092846Y0293003D01*
X0092787Y0293016D01*
X0092728Y0293032D01*
X0092671Y0293052D01*
X0092616Y0293075D01*
X0092561Y0293102D01*
X0092509Y0293131D01*
X0092458Y0293164D01*
X0092409Y0293200D01*
X0092363Y0293238D01*
X0092319Y0293280D01*
X0092277Y0293324D01*
X0092239Y0293370D01*
X0092203Y0293419D01*
X0092170Y0293470D01*
X0092141Y0293522D01*
X0092114Y0293577D01*
X0092091Y0293632D01*
X0092071Y0293689D01*
X0092055Y0293748D01*
X0092042Y0293807D01*
X0092033Y0293866D01*
X0092028Y0293927D01*
X0092026Y0293987D01*
X0092026Y0299987D01*
X0092028Y0300047D01*
X0092033Y0300108D01*
X0092042Y0300167D01*
X0092055Y0300226D01*
X0092071Y0300285D01*
X0092091Y0300342D01*
X0092114Y0300397D01*
X0092141Y0300452D01*
X0092170Y0300504D01*
X0092203Y0300555D01*
X0092239Y0300604D01*
X0092277Y0300650D01*
X0092319Y0300694D01*
X0092363Y0300736D01*
X0092409Y0300774D01*
X0092458Y0300810D01*
X0092509Y0300843D01*
X0092561Y0300872D01*
X0092616Y0300899D01*
X0092671Y0300922D01*
X0092728Y0300942D01*
X0092787Y0300958D01*
X0092846Y0300971D01*
X0092905Y0300980D01*
X0092966Y0300985D01*
X0093026Y0300987D01*
X0094526Y0300987D01*
X0095026Y0300487D01*
X0109026Y0300487D01*
X0109526Y0300987D01*
X0111026Y0300987D01*
X0111086Y0300985D01*
X0111147Y0300980D01*
X0111206Y0300971D01*
X0111265Y0300958D01*
X0111324Y0300942D01*
X0111381Y0300922D01*
X0111436Y0300899D01*
X0111491Y0300872D01*
X0111543Y0300843D01*
X0111594Y0300810D01*
X0111643Y0300774D01*
X0111689Y0300736D01*
X0111733Y0300694D01*
X0111775Y0300650D01*
X0111813Y0300604D01*
X0111849Y0300555D01*
X0111882Y0300504D01*
X0111911Y0300452D01*
X0111938Y0300397D01*
X0111961Y0300342D01*
X0111981Y0300285D01*
X0111997Y0300226D01*
X0112010Y0300167D01*
X0112019Y0300108D01*
X0112024Y0300047D01*
X0112026Y0299987D01*
X0112026Y0293987D01*
X0112024Y0293927D01*
X0112019Y0293866D01*
X0112010Y0293807D01*
X0111997Y0293748D01*
X0111981Y0293689D01*
X0111961Y0293632D01*
X0111938Y0293577D01*
X0111911Y0293522D01*
X0111882Y0293470D01*
X0111849Y0293419D01*
X0111813Y0293370D01*
X0111775Y0293324D01*
X0111733Y0293280D01*
X0111689Y0293238D01*
X0111643Y0293200D01*
X0111594Y0293164D01*
X0111543Y0293131D01*
X0111491Y0293102D01*
X0111436Y0293075D01*
X0111381Y0293052D01*
X0111324Y0293032D01*
X0111265Y0293016D01*
X0111206Y0293003D01*
X0111147Y0292994D01*
X0111086Y0292989D01*
X0111026Y0292987D01*
X0129054Y0289309D02*
X0134054Y0289309D01*
X0154404Y0288724D02*
X0154404Y0290324D01*
X0154404Y0298924D02*
X0154404Y0304424D01*
X0182204Y0304424D01*
X0184604Y0304424D01*
X0212404Y0304424D01*
X0212404Y0298724D01*
X0212404Y0290524D02*
X0212404Y0288724D01*
X0212404Y0280524D02*
X0212404Y0278724D01*
X0212404Y0270524D02*
X0212404Y0268724D01*
X0212404Y0260524D02*
X0212404Y0258724D01*
X0212404Y0250524D02*
X0212404Y0248724D01*
X0212404Y0240524D02*
X0212404Y0238724D01*
X0212404Y0230524D02*
X0212404Y0228724D01*
X0212404Y0220524D02*
X0212404Y0218724D01*
X0212404Y0210524D02*
X0212404Y0208724D01*
X0212404Y0200524D02*
X0212404Y0198724D01*
X0212404Y0190524D02*
X0212404Y0188724D01*
X0212404Y0180524D02*
X0212404Y0178724D01*
X0212404Y0170524D02*
X0212404Y0168724D01*
X0212404Y0160524D02*
X0212404Y0158724D01*
X0212404Y0150524D02*
X0212404Y0148724D01*
X0212404Y0140524D02*
X0212404Y0138724D01*
X0212404Y0130524D02*
X0212404Y0128724D01*
X0212404Y0120524D02*
X0212404Y0118724D01*
X0212404Y0110524D02*
X0212404Y0108724D01*
X0212404Y0100524D02*
X0212404Y0094824D01*
X0154404Y0094824D01*
X0154404Y0100524D01*
X0154404Y0108724D02*
X0154404Y0110524D01*
X0154404Y0118724D02*
X0154404Y0120524D01*
X0154404Y0128724D02*
X0154404Y0130524D01*
X0154404Y0138724D02*
X0154404Y0140524D01*
X0154404Y0148724D02*
X0154404Y0150524D01*
X0154404Y0158724D02*
X0154404Y0160524D01*
X0154404Y0168724D02*
X0154404Y0170524D01*
X0154404Y0178724D02*
X0154404Y0180524D01*
X0154404Y0188724D02*
X0154404Y0190524D01*
X0154404Y0198724D02*
X0154404Y0200524D01*
X0154404Y0208724D02*
X0154404Y0210524D01*
X0154404Y0218724D02*
X0154404Y0220524D01*
X0154404Y0228724D02*
X0154404Y0230524D01*
X0154404Y0238724D02*
X0154404Y0240524D01*
X0154404Y0248724D02*
X0154404Y0250524D01*
X0154404Y0258724D02*
X0154404Y0260524D01*
X0154404Y0268724D02*
X0154404Y0270524D01*
X0154404Y0278724D02*
X0154404Y0280524D01*
X0106656Y0323695D02*
X0106656Y0325195D01*
X0106156Y0325695D01*
X0106156Y0339695D01*
X0106656Y0340195D01*
X0106656Y0341695D01*
X0106654Y0341755D01*
X0106649Y0341816D01*
X0106640Y0341875D01*
X0106627Y0341934D01*
X0106611Y0341993D01*
X0106591Y0342050D01*
X0106568Y0342105D01*
X0106541Y0342160D01*
X0106512Y0342212D01*
X0106479Y0342263D01*
X0106443Y0342312D01*
X0106405Y0342358D01*
X0106363Y0342402D01*
X0106319Y0342444D01*
X0106273Y0342482D01*
X0106224Y0342518D01*
X0106173Y0342551D01*
X0106121Y0342580D01*
X0106066Y0342607D01*
X0106011Y0342630D01*
X0105954Y0342650D01*
X0105895Y0342666D01*
X0105836Y0342679D01*
X0105777Y0342688D01*
X0105716Y0342693D01*
X0105656Y0342695D01*
X0099656Y0342695D01*
X0099596Y0342693D01*
X0099535Y0342688D01*
X0099476Y0342679D01*
X0099417Y0342666D01*
X0099358Y0342650D01*
X0099301Y0342630D01*
X0099246Y0342607D01*
X0099191Y0342580D01*
X0099139Y0342551D01*
X0099088Y0342518D01*
X0099039Y0342482D01*
X0098993Y0342444D01*
X0098949Y0342402D01*
X0098907Y0342358D01*
X0098869Y0342312D01*
X0098833Y0342263D01*
X0098800Y0342212D01*
X0098771Y0342160D01*
X0098744Y0342105D01*
X0098721Y0342050D01*
X0098701Y0341993D01*
X0098685Y0341934D01*
X0098672Y0341875D01*
X0098663Y0341816D01*
X0098658Y0341755D01*
X0098656Y0341695D01*
X0098656Y0340195D01*
X0099156Y0339695D01*
X0099156Y0325695D01*
X0098656Y0325195D01*
X0098656Y0323695D01*
X0098658Y0323635D01*
X0098663Y0323574D01*
X0098672Y0323515D01*
X0098685Y0323456D01*
X0098701Y0323397D01*
X0098721Y0323340D01*
X0098744Y0323285D01*
X0098771Y0323230D01*
X0098800Y0323178D01*
X0098833Y0323127D01*
X0098869Y0323078D01*
X0098907Y0323032D01*
X0098949Y0322988D01*
X0098993Y0322946D01*
X0099039Y0322908D01*
X0099088Y0322872D01*
X0099139Y0322839D01*
X0099191Y0322810D01*
X0099246Y0322783D01*
X0099301Y0322760D01*
X0099358Y0322740D01*
X0099417Y0322724D01*
X0099476Y0322711D01*
X0099535Y0322702D01*
X0099596Y0322697D01*
X0099656Y0322695D01*
X0105656Y0322695D01*
X0105716Y0322697D01*
X0105777Y0322702D01*
X0105836Y0322711D01*
X0105895Y0322724D01*
X0105954Y0322740D01*
X0106011Y0322760D01*
X0106066Y0322783D01*
X0106121Y0322810D01*
X0106173Y0322839D01*
X0106224Y0322872D01*
X0106273Y0322908D01*
X0106319Y0322946D01*
X0106363Y0322988D01*
X0106405Y0323032D01*
X0106443Y0323078D01*
X0106479Y0323127D01*
X0106512Y0323178D01*
X0106541Y0323230D01*
X0106568Y0323285D01*
X0106591Y0323340D01*
X0106611Y0323397D01*
X0106627Y0323456D01*
X0106640Y0323515D01*
X0106649Y0323574D01*
X0106654Y0323635D01*
X0106656Y0323695D01*
X0072932Y0285002D02*
X0072778Y0285004D01*
X0072624Y0285010D01*
X0072470Y0285020D01*
X0072316Y0285034D01*
X0072163Y0285051D01*
X0072011Y0285073D01*
X0071859Y0285099D01*
X0071707Y0285128D01*
X0071557Y0285162D01*
X0071407Y0285199D01*
X0071259Y0285240D01*
X0071111Y0285285D01*
X0070965Y0285334D01*
X0070820Y0285386D01*
X0070677Y0285442D01*
X0070534Y0285502D01*
X0070394Y0285565D01*
X0070255Y0285632D01*
X0070118Y0285703D01*
X0069983Y0285777D01*
X0069850Y0285854D01*
X0069718Y0285935D01*
X0069589Y0286019D01*
X0069462Y0286107D01*
X0069338Y0286198D01*
X0069216Y0286291D01*
X0069096Y0286389D01*
X0068979Y0286489D01*
X0068864Y0286592D01*
X0068752Y0286698D01*
X0068643Y0286806D01*
X0068537Y0286918D01*
X0068433Y0287032D01*
X0068333Y0287149D01*
X0068235Y0287268D01*
X0068141Y0287390D01*
X0068050Y0287515D01*
X0072931Y0297002D02*
X0073083Y0297000D01*
X0073234Y0296994D01*
X0073385Y0296985D01*
X0073537Y0296971D01*
X0073687Y0296954D01*
X0073837Y0296933D01*
X0073987Y0296908D01*
X0074136Y0296880D01*
X0074284Y0296847D01*
X0074431Y0296811D01*
X0074578Y0296772D01*
X0074723Y0296728D01*
X0074867Y0296681D01*
X0075010Y0296630D01*
X0075151Y0296576D01*
X0075292Y0296518D01*
X0075430Y0296457D01*
X0075567Y0296392D01*
X0075703Y0296323D01*
X0075836Y0296252D01*
X0075968Y0296177D01*
X0076098Y0296098D01*
X0076225Y0296017D01*
X0076351Y0295932D01*
X0076475Y0295844D01*
X0076596Y0295753D01*
X0076715Y0295659D01*
X0076831Y0295561D01*
X0076945Y0295461D01*
X0077057Y0295359D01*
X0077165Y0295253D01*
X0077271Y0295145D01*
X0077375Y0295034D01*
X0077475Y0294920D01*
X0077573Y0294804D01*
X0077667Y0294685D01*
X0072932Y0297002D02*
X0072780Y0297000D01*
X0072629Y0296994D01*
X0072478Y0296985D01*
X0072326Y0296971D01*
X0072176Y0296954D01*
X0072026Y0296933D01*
X0071876Y0296908D01*
X0071727Y0296880D01*
X0071579Y0296847D01*
X0071432Y0296811D01*
X0071285Y0296772D01*
X0071140Y0296728D01*
X0070996Y0296681D01*
X0070853Y0296630D01*
X0070712Y0296576D01*
X0070571Y0296518D01*
X0070433Y0296457D01*
X0070296Y0296392D01*
X0070160Y0296323D01*
X0070027Y0296252D01*
X0069895Y0296177D01*
X0069765Y0296098D01*
X0069638Y0296017D01*
X0069512Y0295932D01*
X0069388Y0295844D01*
X0069267Y0295753D01*
X0069148Y0295659D01*
X0069032Y0295561D01*
X0068918Y0295461D01*
X0068806Y0295359D01*
X0068698Y0295253D01*
X0068592Y0295145D01*
X0068488Y0295034D01*
X0068388Y0294920D01*
X0068290Y0294804D01*
X0068196Y0294685D01*
X0072931Y0285002D02*
X0073081Y0285004D01*
X0073232Y0285010D01*
X0073382Y0285019D01*
X0073531Y0285032D01*
X0073681Y0285049D01*
X0073830Y0285070D01*
X0073978Y0285094D01*
X0074126Y0285122D01*
X0074273Y0285154D01*
X0074419Y0285189D01*
X0074564Y0285229D01*
X0074708Y0285271D01*
X0074851Y0285318D01*
X0074993Y0285368D01*
X0075134Y0285421D01*
X0075273Y0285478D01*
X0075411Y0285538D01*
X0075547Y0285602D01*
X0075681Y0285669D01*
X0075814Y0285740D01*
X0075945Y0285814D01*
X0076074Y0285891D01*
X0076201Y0285972D01*
X0076326Y0286055D01*
X0076449Y0286142D01*
X0076570Y0286231D01*
X0076688Y0286324D01*
X0076804Y0286420D01*
X0076918Y0286518D01*
X0077029Y0286619D01*
X0077138Y0286724D01*
X0077243Y0286830D01*
X0077347Y0286940D01*
X0077447Y0287052D01*
X0077545Y0287166D01*
X0077639Y0287283D01*
X0077731Y0287402D01*
X0068995Y0266570D02*
X0069086Y0266445D01*
X0069180Y0266323D01*
X0069278Y0266204D01*
X0069378Y0266087D01*
X0069482Y0265973D01*
X0069588Y0265861D01*
X0069697Y0265753D01*
X0069809Y0265647D01*
X0069924Y0265544D01*
X0070041Y0265444D01*
X0070161Y0265346D01*
X0070283Y0265253D01*
X0070407Y0265162D01*
X0070534Y0265074D01*
X0070663Y0264990D01*
X0070795Y0264909D01*
X0070928Y0264832D01*
X0071063Y0264758D01*
X0071200Y0264687D01*
X0071339Y0264620D01*
X0071479Y0264557D01*
X0071622Y0264497D01*
X0071765Y0264441D01*
X0071910Y0264389D01*
X0072056Y0264340D01*
X0072204Y0264295D01*
X0072352Y0264254D01*
X0072502Y0264217D01*
X0072652Y0264183D01*
X0072804Y0264154D01*
X0072956Y0264128D01*
X0073108Y0264106D01*
X0073261Y0264089D01*
X0073415Y0264075D01*
X0073569Y0264065D01*
X0073723Y0264059D01*
X0073877Y0264057D01*
X0078612Y0273740D02*
X0078518Y0273859D01*
X0078420Y0273975D01*
X0078320Y0274089D01*
X0078216Y0274200D01*
X0078110Y0274308D01*
X0078002Y0274414D01*
X0077890Y0274516D01*
X0077776Y0274616D01*
X0077660Y0274714D01*
X0077541Y0274808D01*
X0077420Y0274899D01*
X0077296Y0274987D01*
X0077170Y0275072D01*
X0077043Y0275153D01*
X0076913Y0275232D01*
X0076781Y0275307D01*
X0076648Y0275378D01*
X0076512Y0275447D01*
X0076375Y0275512D01*
X0076237Y0275573D01*
X0076096Y0275631D01*
X0075955Y0275685D01*
X0075812Y0275736D01*
X0075668Y0275783D01*
X0075523Y0275827D01*
X0075376Y0275866D01*
X0075229Y0275902D01*
X0075081Y0275935D01*
X0074932Y0275963D01*
X0074782Y0275988D01*
X0074632Y0276009D01*
X0074482Y0276026D01*
X0074330Y0276040D01*
X0074179Y0276049D01*
X0074028Y0276055D01*
X0073876Y0276057D01*
X0078676Y0266457D02*
X0078584Y0266338D01*
X0078490Y0266221D01*
X0078392Y0266107D01*
X0078292Y0265995D01*
X0078188Y0265885D01*
X0078083Y0265779D01*
X0077974Y0265674D01*
X0077863Y0265573D01*
X0077749Y0265475D01*
X0077633Y0265379D01*
X0077515Y0265286D01*
X0077394Y0265197D01*
X0077271Y0265110D01*
X0077146Y0265027D01*
X0077019Y0264946D01*
X0076890Y0264869D01*
X0076759Y0264795D01*
X0076626Y0264724D01*
X0076492Y0264657D01*
X0076356Y0264593D01*
X0076218Y0264533D01*
X0076079Y0264476D01*
X0075938Y0264423D01*
X0075796Y0264373D01*
X0075653Y0264326D01*
X0075509Y0264284D01*
X0075364Y0264244D01*
X0075218Y0264209D01*
X0075071Y0264177D01*
X0074923Y0264149D01*
X0074775Y0264125D01*
X0074626Y0264104D01*
X0074476Y0264087D01*
X0074327Y0264074D01*
X0074177Y0264065D01*
X0074026Y0264059D01*
X0073876Y0264057D01*
X0069140Y0273740D02*
X0069234Y0273859D01*
X0069332Y0273975D01*
X0069432Y0274089D01*
X0069536Y0274200D01*
X0069642Y0274308D01*
X0069750Y0274414D01*
X0069862Y0274516D01*
X0069976Y0274616D01*
X0070092Y0274714D01*
X0070211Y0274808D01*
X0070332Y0274899D01*
X0070456Y0274987D01*
X0070582Y0275072D01*
X0070709Y0275153D01*
X0070839Y0275232D01*
X0070971Y0275307D01*
X0071104Y0275378D01*
X0071240Y0275447D01*
X0071377Y0275512D01*
X0071515Y0275573D01*
X0071656Y0275631D01*
X0071797Y0275685D01*
X0071940Y0275736D01*
X0072084Y0275783D01*
X0072229Y0275827D01*
X0072376Y0275866D01*
X0072523Y0275902D01*
X0072671Y0275935D01*
X0072820Y0275963D01*
X0072970Y0275988D01*
X0073120Y0276009D01*
X0073270Y0276026D01*
X0073422Y0276040D01*
X0073573Y0276049D01*
X0073724Y0276055D01*
X0073876Y0276057D01*
X0079818Y0246418D02*
X0079726Y0246299D01*
X0079632Y0246182D01*
X0079534Y0246068D01*
X0079434Y0245956D01*
X0079330Y0245846D01*
X0079225Y0245740D01*
X0079116Y0245635D01*
X0079005Y0245534D01*
X0078891Y0245436D01*
X0078775Y0245340D01*
X0078657Y0245247D01*
X0078536Y0245158D01*
X0078413Y0245071D01*
X0078288Y0244988D01*
X0078161Y0244907D01*
X0078032Y0244830D01*
X0077901Y0244756D01*
X0077768Y0244685D01*
X0077634Y0244618D01*
X0077498Y0244554D01*
X0077360Y0244494D01*
X0077221Y0244437D01*
X0077080Y0244384D01*
X0076938Y0244334D01*
X0076795Y0244287D01*
X0076651Y0244245D01*
X0076506Y0244205D01*
X0076360Y0244170D01*
X0076213Y0244138D01*
X0076065Y0244110D01*
X0075917Y0244086D01*
X0075768Y0244065D01*
X0075618Y0244048D01*
X0075469Y0244035D01*
X0075319Y0244026D01*
X0075168Y0244020D01*
X0075018Y0244018D01*
X0079754Y0253701D02*
X0079660Y0253820D01*
X0079562Y0253936D01*
X0079462Y0254050D01*
X0079358Y0254161D01*
X0079252Y0254269D01*
X0079144Y0254375D01*
X0079032Y0254477D01*
X0078918Y0254577D01*
X0078802Y0254675D01*
X0078683Y0254769D01*
X0078562Y0254860D01*
X0078438Y0254948D01*
X0078312Y0255033D01*
X0078185Y0255114D01*
X0078055Y0255193D01*
X0077923Y0255268D01*
X0077790Y0255339D01*
X0077654Y0255408D01*
X0077517Y0255473D01*
X0077379Y0255534D01*
X0077238Y0255592D01*
X0077097Y0255646D01*
X0076954Y0255697D01*
X0076810Y0255744D01*
X0076665Y0255788D01*
X0076518Y0255827D01*
X0076371Y0255863D01*
X0076223Y0255896D01*
X0076074Y0255924D01*
X0075924Y0255949D01*
X0075774Y0255970D01*
X0075624Y0255987D01*
X0075472Y0256001D01*
X0075321Y0256010D01*
X0075170Y0256016D01*
X0075018Y0256018D01*
X0070136Y0246531D02*
X0070227Y0246406D01*
X0070321Y0246284D01*
X0070419Y0246165D01*
X0070519Y0246048D01*
X0070623Y0245934D01*
X0070729Y0245822D01*
X0070838Y0245714D01*
X0070950Y0245608D01*
X0071065Y0245505D01*
X0071182Y0245405D01*
X0071302Y0245307D01*
X0071424Y0245214D01*
X0071548Y0245123D01*
X0071675Y0245035D01*
X0071804Y0244951D01*
X0071936Y0244870D01*
X0072069Y0244793D01*
X0072204Y0244719D01*
X0072341Y0244648D01*
X0072480Y0244581D01*
X0072620Y0244518D01*
X0072763Y0244458D01*
X0072906Y0244402D01*
X0073051Y0244350D01*
X0073197Y0244301D01*
X0073345Y0244256D01*
X0073493Y0244215D01*
X0073643Y0244178D01*
X0073793Y0244144D01*
X0073945Y0244115D01*
X0074097Y0244089D01*
X0074249Y0244067D01*
X0074402Y0244050D01*
X0074556Y0244036D01*
X0074710Y0244026D01*
X0074864Y0244020D01*
X0075018Y0244018D01*
X0070282Y0253701D02*
X0070376Y0253820D01*
X0070474Y0253936D01*
X0070574Y0254050D01*
X0070678Y0254161D01*
X0070784Y0254269D01*
X0070892Y0254375D01*
X0071004Y0254477D01*
X0071118Y0254577D01*
X0071234Y0254675D01*
X0071353Y0254769D01*
X0071474Y0254860D01*
X0071598Y0254948D01*
X0071724Y0255033D01*
X0071851Y0255114D01*
X0071981Y0255193D01*
X0072113Y0255268D01*
X0072246Y0255339D01*
X0072382Y0255408D01*
X0072519Y0255473D01*
X0072657Y0255534D01*
X0072798Y0255592D01*
X0072939Y0255646D01*
X0073082Y0255697D01*
X0073226Y0255744D01*
X0073371Y0255788D01*
X0073518Y0255827D01*
X0073665Y0255863D01*
X0073813Y0255896D01*
X0073962Y0255924D01*
X0074112Y0255949D01*
X0074262Y0255970D01*
X0074412Y0255987D01*
X0074564Y0256001D01*
X0074715Y0256010D01*
X0074866Y0256016D01*
X0075018Y0256018D01*
X0144802Y0335215D02*
X0142302Y0337715D01*
X0142302Y0342715D01*
X0144802Y0345215D01*
X0149802Y0345215D01*
X0152302Y0342715D01*
X0154802Y0345215D01*
X0159802Y0345215D01*
X0162302Y0342715D01*
X0164802Y0345215D01*
X0169802Y0345215D01*
X0172302Y0342715D01*
X0174802Y0345215D01*
X0179802Y0345215D01*
X0182302Y0342715D01*
X0184802Y0345215D01*
X0189802Y0345215D01*
X0192302Y0342715D01*
X0194802Y0345215D01*
X0199802Y0345215D01*
X0202302Y0342715D01*
X0202302Y0337715D01*
X0199802Y0335215D01*
X0194802Y0335215D01*
X0192302Y0337715D01*
X0189802Y0335215D01*
X0184802Y0335215D01*
X0182302Y0337715D01*
X0182302Y0342715D01*
X0182302Y0337715D02*
X0179802Y0335215D01*
X0174802Y0335215D01*
X0172302Y0337715D01*
X0169802Y0335215D01*
X0164802Y0335215D01*
X0162302Y0337715D01*
X0159802Y0335215D01*
X0154802Y0335215D01*
X0152302Y0337715D01*
X0149802Y0335215D01*
X0144802Y0335215D01*
X0152302Y0337715D02*
X0152302Y0342715D01*
X0162302Y0342715D02*
X0162302Y0337715D01*
X0172302Y0337715D02*
X0172302Y0342715D01*
X0192302Y0342715D02*
X0192302Y0337715D01*
X0231455Y0299782D02*
X0228955Y0297282D01*
X0228955Y0292282D01*
X0231455Y0289782D01*
X0228955Y0287282D01*
X0228955Y0282282D01*
X0231455Y0279782D01*
X0236455Y0279782D01*
X0238955Y0282282D01*
X0238955Y0287282D01*
X0236455Y0289782D01*
X0231455Y0289782D01*
X0236455Y0289782D02*
X0238955Y0292282D01*
X0238955Y0297282D01*
X0236455Y0299782D01*
X0231455Y0299782D01*
X0231455Y0279782D02*
X0228955Y0277282D01*
X0228955Y0272282D01*
X0231455Y0269782D01*
X0228955Y0267282D01*
X0228955Y0262282D01*
X0231455Y0259782D01*
X0228955Y0257282D01*
X0228955Y0252282D01*
X0231455Y0249782D01*
X0236455Y0249782D01*
X0238955Y0252282D01*
X0238955Y0257282D01*
X0236455Y0259782D01*
X0231455Y0259782D01*
X0236455Y0259782D02*
X0238955Y0262282D01*
X0238955Y0267282D01*
X0236455Y0269782D01*
X0231455Y0269782D01*
X0236455Y0269782D02*
X0238955Y0272282D01*
X0238955Y0277282D01*
X0236455Y0279782D01*
X0236455Y0249782D02*
X0238955Y0247282D01*
X0238955Y0242282D01*
X0236455Y0239782D01*
X0238955Y0237282D01*
X0238955Y0232282D01*
X0236455Y0229782D01*
X0238955Y0227282D01*
X0238955Y0222282D01*
X0236455Y0219782D01*
X0231455Y0219782D01*
X0228955Y0222282D01*
X0228955Y0227282D01*
X0231455Y0229782D01*
X0228955Y0232282D01*
X0228955Y0237282D01*
X0231455Y0239782D01*
X0228955Y0242282D01*
X0228955Y0247282D01*
X0231455Y0249782D01*
X0231455Y0239782D02*
X0236455Y0239782D01*
X0236455Y0229782D02*
X0231455Y0229782D01*
X0231455Y0219782D02*
X0228955Y0217282D01*
X0228955Y0212282D01*
X0231455Y0209782D01*
X0228955Y0207282D01*
X0228955Y0202282D01*
X0231455Y0199782D01*
X0228955Y0197282D01*
X0228955Y0192282D01*
X0231455Y0189782D01*
X0236455Y0189782D01*
X0238955Y0192282D01*
X0238955Y0197282D01*
X0236455Y0199782D01*
X0231455Y0199782D01*
X0236455Y0199782D02*
X0238955Y0202282D01*
X0238955Y0207282D01*
X0236455Y0209782D01*
X0231455Y0209782D01*
X0236455Y0209782D02*
X0238955Y0212282D01*
X0238955Y0217282D01*
X0236455Y0219782D01*
X0236455Y0189782D02*
X0238955Y0187282D01*
X0238955Y0182282D01*
X0236455Y0179782D01*
X0238955Y0177282D01*
X0238955Y0172282D01*
X0236455Y0169782D01*
X0238955Y0167282D01*
X0238955Y0162282D01*
X0236455Y0159782D01*
X0231455Y0159782D01*
X0228955Y0162282D01*
X0228955Y0167282D01*
X0231455Y0169782D01*
X0228955Y0172282D01*
X0228955Y0177282D01*
X0231455Y0179782D01*
X0228955Y0182282D01*
X0228955Y0187282D01*
X0231455Y0189782D01*
X0231455Y0179782D02*
X0236455Y0179782D01*
X0236455Y0169782D02*
X0231455Y0169782D01*
X0231455Y0159782D02*
X0228955Y0157282D01*
X0228955Y0152282D01*
X0231455Y0149782D01*
X0228955Y0147282D01*
X0228955Y0142282D01*
X0231455Y0139782D01*
X0228955Y0137282D01*
X0228955Y0132282D01*
X0231455Y0129782D01*
X0236455Y0129782D01*
X0238955Y0132282D01*
X0238955Y0137282D01*
X0236455Y0139782D01*
X0231455Y0139782D01*
X0236455Y0139782D02*
X0238955Y0142282D01*
X0238955Y0147282D01*
X0236455Y0149782D01*
X0231455Y0149782D01*
X0236455Y0149782D02*
X0238955Y0152282D01*
X0238955Y0157282D01*
X0236455Y0159782D01*
X0236455Y0129782D02*
X0238955Y0127282D01*
X0238955Y0122282D01*
X0236455Y0119782D01*
X0238955Y0117282D01*
X0238955Y0112282D01*
X0236455Y0109782D01*
X0238955Y0107282D01*
X0238955Y0102282D01*
X0236455Y0099782D01*
X0231455Y0099782D01*
X0228955Y0102282D01*
X0228955Y0107282D01*
X0231455Y0109782D01*
X0228955Y0112282D01*
X0228955Y0117282D01*
X0231455Y0119782D01*
X0228955Y0122282D01*
X0228955Y0127282D01*
X0231455Y0129782D01*
X0231455Y0119782D02*
X0236455Y0119782D01*
X0236455Y0109782D02*
X0231455Y0109782D01*
X0277124Y0154585D02*
X0274624Y0157085D01*
X0274624Y0162085D01*
X0277124Y0164585D01*
X0274624Y0167085D01*
X0274624Y0172085D01*
X0277124Y0174585D01*
X0282124Y0174585D01*
X0284624Y0172085D01*
X0284624Y0167085D01*
X0282124Y0164585D01*
X0284624Y0162085D01*
X0284624Y0157085D01*
X0282124Y0154585D01*
X0277124Y0154585D01*
X0277124Y0164585D02*
X0282124Y0164585D01*
X0311471Y0133680D02*
X0334471Y0133680D01*
X0334471Y0213680D01*
X0326971Y0213680D01*
X0326969Y0213554D01*
X0326963Y0213429D01*
X0326953Y0213304D01*
X0326939Y0213179D01*
X0326922Y0213054D01*
X0326900Y0212930D01*
X0326875Y0212807D01*
X0326845Y0212685D01*
X0326812Y0212564D01*
X0326775Y0212444D01*
X0326735Y0212325D01*
X0326690Y0212208D01*
X0326642Y0212091D01*
X0326590Y0211977D01*
X0326535Y0211864D01*
X0326476Y0211753D01*
X0326414Y0211644D01*
X0326348Y0211537D01*
X0326279Y0211432D01*
X0326207Y0211329D01*
X0326132Y0211228D01*
X0326053Y0211130D01*
X0325971Y0211035D01*
X0325887Y0210942D01*
X0325799Y0210852D01*
X0325709Y0210764D01*
X0325616Y0210680D01*
X0325521Y0210598D01*
X0325423Y0210519D01*
X0325322Y0210444D01*
X0325219Y0210372D01*
X0325114Y0210303D01*
X0325007Y0210237D01*
X0324898Y0210175D01*
X0324787Y0210116D01*
X0324674Y0210061D01*
X0324560Y0210009D01*
X0324443Y0209961D01*
X0324326Y0209916D01*
X0324207Y0209876D01*
X0324087Y0209839D01*
X0323966Y0209806D01*
X0323844Y0209776D01*
X0323721Y0209751D01*
X0323597Y0209729D01*
X0323472Y0209712D01*
X0323347Y0209698D01*
X0323222Y0209688D01*
X0323097Y0209682D01*
X0322971Y0209680D01*
X0322845Y0209682D01*
X0322720Y0209688D01*
X0322595Y0209698D01*
X0322470Y0209712D01*
X0322345Y0209729D01*
X0322221Y0209751D01*
X0322098Y0209776D01*
X0321976Y0209806D01*
X0321855Y0209839D01*
X0321735Y0209876D01*
X0321616Y0209916D01*
X0321499Y0209961D01*
X0321382Y0210009D01*
X0321268Y0210061D01*
X0321155Y0210116D01*
X0321044Y0210175D01*
X0320935Y0210237D01*
X0320828Y0210303D01*
X0320723Y0210372D01*
X0320620Y0210444D01*
X0320519Y0210519D01*
X0320421Y0210598D01*
X0320326Y0210680D01*
X0320233Y0210764D01*
X0320143Y0210852D01*
X0320055Y0210942D01*
X0319971Y0211035D01*
X0319889Y0211130D01*
X0319810Y0211228D01*
X0319735Y0211329D01*
X0319663Y0211432D01*
X0319594Y0211537D01*
X0319528Y0211644D01*
X0319466Y0211753D01*
X0319407Y0211864D01*
X0319352Y0211977D01*
X0319300Y0212091D01*
X0319252Y0212208D01*
X0319207Y0212325D01*
X0319167Y0212444D01*
X0319130Y0212564D01*
X0319097Y0212685D01*
X0319067Y0212807D01*
X0319042Y0212930D01*
X0319020Y0213054D01*
X0319003Y0213179D01*
X0318989Y0213304D01*
X0318979Y0213429D01*
X0318973Y0213554D01*
X0318971Y0213680D01*
X0311471Y0213680D01*
X0311471Y0133680D01*
X0356987Y0165628D02*
X0359487Y0163128D01*
X0364487Y0163128D01*
X0366987Y0165628D01*
X0366987Y0170628D01*
X0364487Y0173128D01*
X0359487Y0173128D01*
X0356987Y0170628D01*
X0356987Y0165628D01*
X0359487Y0173128D02*
X0356987Y0175628D01*
X0356987Y0180628D01*
X0359487Y0183128D01*
X0364487Y0183128D01*
X0366987Y0180628D01*
X0366987Y0175628D01*
X0364487Y0173128D01*
X0227510Y0052876D02*
X0227510Y0050376D01*
X0223010Y0050376D01*
X0218510Y0050376D01*
X0218510Y0052876D01*
X0227510Y0052876D01*
X0203010Y0053876D02*
X0203016Y0054367D01*
X0203034Y0054857D01*
X0203064Y0055347D01*
X0203106Y0055836D01*
X0203160Y0056324D01*
X0203226Y0056811D01*
X0203304Y0057295D01*
X0203394Y0057778D01*
X0203496Y0058258D01*
X0203609Y0058736D01*
X0203734Y0059210D01*
X0203871Y0059682D01*
X0204019Y0060150D01*
X0204179Y0060614D01*
X0204350Y0061074D01*
X0204532Y0061530D01*
X0204726Y0061981D01*
X0204930Y0062427D01*
X0205146Y0062868D01*
X0205372Y0063304D01*
X0205608Y0063734D01*
X0205855Y0064158D01*
X0206113Y0064576D01*
X0206381Y0064987D01*
X0206658Y0065392D01*
X0206946Y0065790D01*
X0207243Y0066181D01*
X0207550Y0066564D01*
X0207866Y0066939D01*
X0208191Y0067307D01*
X0208525Y0067667D01*
X0208868Y0068018D01*
X0209219Y0068361D01*
X0209579Y0068695D01*
X0209947Y0069020D01*
X0210322Y0069336D01*
X0210705Y0069643D01*
X0211096Y0069940D01*
X0211494Y0070228D01*
X0211899Y0070505D01*
X0212310Y0070773D01*
X0212728Y0071031D01*
X0213152Y0071278D01*
X0213582Y0071514D01*
X0214018Y0071740D01*
X0214459Y0071956D01*
X0214905Y0072160D01*
X0215356Y0072354D01*
X0215812Y0072536D01*
X0216272Y0072707D01*
X0216736Y0072867D01*
X0217204Y0073015D01*
X0217676Y0073152D01*
X0218150Y0073277D01*
X0218628Y0073390D01*
X0219108Y0073492D01*
X0219591Y0073582D01*
X0220075Y0073660D01*
X0220562Y0073726D01*
X0221050Y0073780D01*
X0221539Y0073822D01*
X0222029Y0073852D01*
X0222519Y0073870D01*
X0223010Y0073876D01*
X0223501Y0073870D01*
X0223991Y0073852D01*
X0224481Y0073822D01*
X0224970Y0073780D01*
X0225458Y0073726D01*
X0225945Y0073660D01*
X0226429Y0073582D01*
X0226912Y0073492D01*
X0227392Y0073390D01*
X0227870Y0073277D01*
X0228344Y0073152D01*
X0228816Y0073015D01*
X0229284Y0072867D01*
X0229748Y0072707D01*
X0230208Y0072536D01*
X0230664Y0072354D01*
X0231115Y0072160D01*
X0231561Y0071956D01*
X0232002Y0071740D01*
X0232438Y0071514D01*
X0232868Y0071278D01*
X0233292Y0071031D01*
X0233710Y0070773D01*
X0234121Y0070505D01*
X0234526Y0070228D01*
X0234924Y0069940D01*
X0235315Y0069643D01*
X0235698Y0069336D01*
X0236073Y0069020D01*
X0236441Y0068695D01*
X0236801Y0068361D01*
X0237152Y0068018D01*
X0237495Y0067667D01*
X0237829Y0067307D01*
X0238154Y0066939D01*
X0238470Y0066564D01*
X0238777Y0066181D01*
X0239074Y0065790D01*
X0239362Y0065392D01*
X0239639Y0064987D01*
X0239907Y0064576D01*
X0240165Y0064158D01*
X0240412Y0063734D01*
X0240648Y0063304D01*
X0240874Y0062868D01*
X0241090Y0062427D01*
X0241294Y0061981D01*
X0241488Y0061530D01*
X0241670Y0061074D01*
X0241841Y0060614D01*
X0242001Y0060150D01*
X0242149Y0059682D01*
X0242286Y0059210D01*
X0242411Y0058736D01*
X0242524Y0058258D01*
X0242626Y0057778D01*
X0242716Y0057295D01*
X0242794Y0056811D01*
X0242860Y0056324D01*
X0242914Y0055836D01*
X0242956Y0055347D01*
X0242986Y0054857D01*
X0243004Y0054367D01*
X0243010Y0053876D01*
X0243004Y0053385D01*
X0242986Y0052895D01*
X0242956Y0052405D01*
X0242914Y0051916D01*
X0242860Y0051428D01*
X0242794Y0050941D01*
X0242716Y0050457D01*
X0242626Y0049974D01*
X0242524Y0049494D01*
X0242411Y0049016D01*
X0242286Y0048542D01*
X0242149Y0048070D01*
X0242001Y0047602D01*
X0241841Y0047138D01*
X0241670Y0046678D01*
X0241488Y0046222D01*
X0241294Y0045771D01*
X0241090Y0045325D01*
X0240874Y0044884D01*
X0240648Y0044448D01*
X0240412Y0044018D01*
X0240165Y0043594D01*
X0239907Y0043176D01*
X0239639Y0042765D01*
X0239362Y0042360D01*
X0239074Y0041962D01*
X0238777Y0041571D01*
X0238470Y0041188D01*
X0238154Y0040813D01*
X0237829Y0040445D01*
X0237495Y0040085D01*
X0237152Y0039734D01*
X0236801Y0039391D01*
X0236441Y0039057D01*
X0236073Y0038732D01*
X0235698Y0038416D01*
X0235315Y0038109D01*
X0234924Y0037812D01*
X0234526Y0037524D01*
X0234121Y0037247D01*
X0233710Y0036979D01*
X0233292Y0036721D01*
X0232868Y0036474D01*
X0232438Y0036238D01*
X0232002Y0036012D01*
X0231561Y0035796D01*
X0231115Y0035592D01*
X0230664Y0035398D01*
X0230208Y0035216D01*
X0229748Y0035045D01*
X0229284Y0034885D01*
X0228816Y0034737D01*
X0228344Y0034600D01*
X0227870Y0034475D01*
X0227392Y0034362D01*
X0226912Y0034260D01*
X0226429Y0034170D01*
X0225945Y0034092D01*
X0225458Y0034026D01*
X0224970Y0033972D01*
X0224481Y0033930D01*
X0223991Y0033900D01*
X0223501Y0033882D01*
X0223010Y0033876D01*
X0222519Y0033882D01*
X0222029Y0033900D01*
X0221539Y0033930D01*
X0221050Y0033972D01*
X0220562Y0034026D01*
X0220075Y0034092D01*
X0219591Y0034170D01*
X0219108Y0034260D01*
X0218628Y0034362D01*
X0218150Y0034475D01*
X0217676Y0034600D01*
X0217204Y0034737D01*
X0216736Y0034885D01*
X0216272Y0035045D01*
X0215812Y0035216D01*
X0215356Y0035398D01*
X0214905Y0035592D01*
X0214459Y0035796D01*
X0214018Y0036012D01*
X0213582Y0036238D01*
X0213152Y0036474D01*
X0212728Y0036721D01*
X0212310Y0036979D01*
X0211899Y0037247D01*
X0211494Y0037524D01*
X0211096Y0037812D01*
X0210705Y0038109D01*
X0210322Y0038416D01*
X0209947Y0038732D01*
X0209579Y0039057D01*
X0209219Y0039391D01*
X0208868Y0039734D01*
X0208525Y0040085D01*
X0208191Y0040445D01*
X0207866Y0040813D01*
X0207550Y0041188D01*
X0207243Y0041571D01*
X0206946Y0041962D01*
X0206658Y0042360D01*
X0206381Y0042765D01*
X0206113Y0043176D01*
X0205855Y0043594D01*
X0205608Y0044018D01*
X0205372Y0044448D01*
X0205146Y0044884D01*
X0204930Y0045325D01*
X0204726Y0045771D01*
X0204532Y0046222D01*
X0204350Y0046678D01*
X0204179Y0047138D01*
X0204019Y0047602D01*
X0203871Y0048070D01*
X0203734Y0048542D01*
X0203609Y0049016D01*
X0203496Y0049494D01*
X0203394Y0049974D01*
X0203304Y0050457D01*
X0203226Y0050941D01*
X0203160Y0051428D01*
X0203106Y0051916D01*
X0203064Y0052405D01*
X0203034Y0052895D01*
X0203016Y0053385D01*
X0203010Y0053876D01*
X0218010Y0040376D02*
X0218010Y0037376D01*
X0216510Y0038876D02*
X0219510Y0038876D01*
X0223010Y0049376D02*
X0223010Y0050376D01*
X0223010Y0056376D02*
X0223010Y0058376D01*
X0136554Y0101809D02*
X0134054Y0099309D01*
X0129054Y0099309D01*
X0126554Y0101809D01*
X0126554Y0106809D01*
X0129054Y0109309D01*
X0126554Y0111809D01*
X0126554Y0116809D01*
X0129054Y0119309D01*
X0126554Y0121809D01*
X0126554Y0126809D01*
X0129054Y0129309D01*
X0126554Y0131809D01*
X0126554Y0136809D01*
X0129054Y0139309D01*
X0126554Y0141809D01*
X0126554Y0146809D01*
X0129054Y0149309D01*
X0126554Y0151809D01*
X0126554Y0156809D01*
X0129054Y0159309D01*
X0134054Y0159309D02*
X0136554Y0156809D01*
X0136554Y0151809D01*
X0134054Y0149309D01*
X0136554Y0146809D01*
X0136554Y0141809D01*
X0134054Y0139309D01*
X0136554Y0136809D01*
X0136554Y0131809D01*
X0134054Y0129309D01*
X0129054Y0129309D01*
X0134054Y0129309D02*
X0136554Y0126809D01*
X0136554Y0121809D01*
X0134054Y0119309D01*
X0136554Y0116809D01*
X0136554Y0111809D01*
X0134054Y0109309D01*
X0136554Y0106809D01*
X0136554Y0101809D01*
X0134054Y0109309D02*
X0129054Y0109309D01*
X0129054Y0119309D02*
X0134054Y0119309D01*
X0134054Y0139309D02*
X0129054Y0139309D01*
X0129054Y0149309D02*
X0134054Y0149309D01*
D13*
X0115541Y0182478D02*
X0112539Y0182478D01*
X0111788Y0183228D01*
X0111788Y0184729D01*
X0112539Y0185480D01*
X0115541Y0185480D01*
X0116292Y0184729D01*
X0116292Y0183228D01*
X0115541Y0182478D01*
X0114790Y0183979D02*
X0116292Y0185480D01*
X0116292Y0187081D02*
X0116292Y0190084D01*
X0116292Y0188583D02*
X0111788Y0188583D01*
X0113289Y0187081D01*
X0061737Y0181466D02*
X0061737Y0180716D01*
X0060986Y0179965D01*
X0061737Y0179214D01*
X0061737Y0178464D01*
X0060986Y0177713D01*
X0059485Y0177713D01*
X0058734Y0178464D01*
X0057133Y0178464D02*
X0056382Y0177713D01*
X0054881Y0177713D01*
X0054130Y0178464D01*
X0054130Y0181466D01*
X0054881Y0182217D01*
X0056382Y0182217D01*
X0057133Y0181466D01*
X0058734Y0181466D02*
X0059485Y0182217D01*
X0060986Y0182217D01*
X0061737Y0181466D01*
X0060986Y0179965D02*
X0060236Y0179965D01*
X0060438Y0202477D02*
X0057435Y0202477D01*
X0058936Y0202477D02*
X0058936Y0206981D01*
X0057435Y0205479D01*
X0055834Y0206230D02*
X0055083Y0206981D01*
X0053582Y0206981D01*
X0052831Y0206230D01*
X0052831Y0203227D01*
X0053582Y0202477D01*
X0055083Y0202477D01*
X0055834Y0203227D01*
X0056959Y0243768D02*
X0053956Y0243768D01*
X0053956Y0248272D01*
X0056959Y0248272D01*
X0058560Y0248272D02*
X0060812Y0248272D01*
X0061563Y0247521D01*
X0061563Y0244519D01*
X0060812Y0243768D01*
X0058560Y0243768D01*
X0058560Y0248272D01*
X0055458Y0246020D02*
X0053956Y0246020D01*
X0052355Y0243768D02*
X0049352Y0243768D01*
X0049352Y0248272D01*
X0063164Y0247521D02*
X0063915Y0248272D01*
X0065416Y0248272D01*
X0066167Y0247521D01*
X0066167Y0246771D01*
X0065416Y0246020D01*
X0066167Y0245269D01*
X0066167Y0244519D01*
X0065416Y0243768D01*
X0063915Y0243768D01*
X0063164Y0244519D01*
X0064665Y0246020D02*
X0065416Y0246020D01*
X0065025Y0263807D02*
X0062022Y0263807D01*
X0065025Y0266810D01*
X0065025Y0267561D01*
X0064274Y0268311D01*
X0062773Y0268311D01*
X0062022Y0267561D01*
X0060421Y0267561D02*
X0059670Y0268311D01*
X0057418Y0268311D01*
X0057418Y0263807D01*
X0059670Y0263807D01*
X0060421Y0264558D01*
X0060421Y0267561D01*
X0055817Y0268311D02*
X0052815Y0268311D01*
X0052815Y0263807D01*
X0055817Y0263807D01*
X0054316Y0266059D02*
X0052815Y0266059D01*
X0051213Y0263807D02*
X0048211Y0263807D01*
X0048211Y0268311D01*
X0047266Y0284752D02*
X0050268Y0284752D01*
X0051870Y0284752D02*
X0051870Y0289256D01*
X0054872Y0289256D01*
X0056474Y0289256D02*
X0056474Y0284752D01*
X0058726Y0284752D01*
X0059476Y0285503D01*
X0059476Y0288506D01*
X0058726Y0289256D01*
X0056474Y0289256D01*
X0053371Y0287004D02*
X0051870Y0287004D01*
X0051870Y0284752D02*
X0054872Y0284752D01*
X0061078Y0284752D02*
X0064080Y0284752D01*
X0062579Y0284752D02*
X0062579Y0289256D01*
X0061078Y0287755D01*
X0047266Y0289256D02*
X0047266Y0284752D01*
X0039191Y0338325D02*
X0058876Y0338325D01*
X0058876Y0367853D01*
X0078561Y0367853D01*
X0078561Y0338325D01*
X0058876Y0338325D01*
X0039191Y0338325D02*
X0039191Y0367853D01*
X0058876Y0367853D01*
X0139000Y0296757D02*
X0143504Y0296757D01*
X0143504Y0298258D02*
X0143504Y0295255D01*
X0141252Y0293654D02*
X0142002Y0292903D01*
X0142002Y0290652D01*
X0143504Y0290652D02*
X0139000Y0290652D01*
X0139000Y0292903D01*
X0139750Y0293654D01*
X0141252Y0293654D01*
X0140501Y0295255D02*
X0139000Y0296757D01*
X0139000Y0289050D02*
X0139000Y0287549D01*
X0139000Y0288300D02*
X0142753Y0288300D01*
X0143504Y0287549D01*
X0143504Y0286798D01*
X0142753Y0286048D01*
X0189040Y0329016D02*
X0189790Y0328265D01*
X0190541Y0328265D01*
X0191292Y0329016D01*
X0191292Y0332769D01*
X0192042Y0332769D02*
X0190541Y0332769D01*
X0193644Y0332769D02*
X0195896Y0332769D01*
X0196646Y0332018D01*
X0196646Y0330517D01*
X0195896Y0329766D01*
X0193644Y0329766D01*
X0193644Y0328265D02*
X0193644Y0332769D01*
X0198248Y0332769D02*
X0198248Y0330517D01*
X0199749Y0331268D01*
X0200500Y0331268D01*
X0201250Y0330517D01*
X0201250Y0329016D01*
X0200500Y0328265D01*
X0198998Y0328265D01*
X0198248Y0329016D01*
X0198248Y0332769D02*
X0201250Y0332769D01*
X0241401Y0297980D02*
X0241401Y0296479D01*
X0242152Y0295728D01*
X0242152Y0294127D02*
X0243653Y0294127D01*
X0244404Y0293376D01*
X0244404Y0291124D01*
X0245905Y0291124D02*
X0241401Y0291124D01*
X0241401Y0293376D01*
X0242152Y0294127D01*
X0241401Y0297980D02*
X0242152Y0298730D01*
X0242903Y0298730D01*
X0245905Y0295728D01*
X0245905Y0298730D01*
X0241401Y0289523D02*
X0241401Y0288021D01*
X0241401Y0288772D02*
X0245154Y0288772D01*
X0245905Y0288021D01*
X0245905Y0287271D01*
X0245154Y0286520D01*
X0311721Y0219933D02*
X0313222Y0219933D01*
X0312472Y0219933D02*
X0312472Y0215430D01*
X0313222Y0215430D02*
X0311721Y0215430D01*
X0314790Y0216180D02*
X0314790Y0219183D01*
X0315541Y0219933D01*
X0317042Y0219933D01*
X0317793Y0219183D01*
X0319394Y0218432D02*
X0320895Y0219933D01*
X0320895Y0215430D01*
X0319394Y0215430D02*
X0322397Y0215430D01*
X0317793Y0216180D02*
X0317042Y0215430D01*
X0315541Y0215430D01*
X0314790Y0216180D01*
X0271424Y0166745D02*
X0272174Y0165995D01*
X0272174Y0164494D01*
X0271424Y0163743D01*
X0269922Y0165244D02*
X0269922Y0165995D01*
X0270673Y0166745D01*
X0271424Y0166745D01*
X0269922Y0165995D02*
X0269172Y0166745D01*
X0268421Y0166745D01*
X0267671Y0165995D01*
X0267671Y0164494D01*
X0268421Y0163743D01*
X0268421Y0162142D02*
X0269922Y0162142D01*
X0270673Y0161391D01*
X0270673Y0159139D01*
X0272174Y0159139D02*
X0267671Y0159139D01*
X0267671Y0161391D01*
X0268421Y0162142D01*
X0267671Y0157538D02*
X0267671Y0156036D01*
X0267671Y0156787D02*
X0271424Y0156787D01*
X0272174Y0156036D01*
X0272174Y0155286D01*
X0271424Y0154535D01*
X0276396Y0123561D02*
X0296081Y0123561D01*
X0296081Y0094034D01*
X0315766Y0094034D01*
X0315766Y0123561D01*
X0296081Y0123561D01*
X0276396Y0123561D02*
X0276396Y0094034D01*
X0296081Y0094034D01*
X0369433Y0171368D02*
X0369433Y0172869D01*
X0369433Y0172118D02*
X0373186Y0172118D01*
X0373937Y0171368D01*
X0373937Y0170617D01*
X0373186Y0169867D01*
X0372435Y0174470D02*
X0372435Y0176722D01*
X0371685Y0177473D01*
X0370183Y0177473D01*
X0369433Y0176722D01*
X0369433Y0174470D01*
X0373937Y0174470D01*
X0371685Y0179074D02*
X0371685Y0182077D01*
X0373937Y0181326D02*
X0369433Y0181326D01*
X0371685Y0179074D01*
X0211960Y0080233D02*
X0211960Y0077230D01*
X0208958Y0080233D01*
X0208207Y0080233D01*
X0207456Y0079482D01*
X0207456Y0077981D01*
X0208207Y0077230D01*
X0208207Y0075629D02*
X0207456Y0074878D01*
X0207456Y0073377D01*
X0208207Y0072626D01*
X0211210Y0072626D01*
X0211960Y0073377D01*
X0211960Y0074878D01*
X0211210Y0075629D01*
D14*
X0223010Y0056126D03*
D15*
X0081964Y0253987D02*
X0081865Y0254156D01*
X0081761Y0254322D01*
X0081654Y0254486D01*
X0081543Y0254647D01*
X0081428Y0254805D01*
X0081309Y0254960D01*
X0081186Y0255113D01*
X0081060Y0255262D01*
X0080930Y0255408D01*
X0080796Y0255551D01*
X0080659Y0255691D01*
X0080519Y0255827D01*
X0080375Y0255960D01*
X0080228Y0256089D01*
X0080078Y0256215D01*
X0079925Y0256336D01*
X0079769Y0256455D01*
X0079610Y0256569D01*
X0079449Y0256679D01*
X0079284Y0256785D01*
X0079118Y0256888D01*
X0078948Y0256986D01*
X0078777Y0257080D01*
X0078603Y0257170D01*
X0078427Y0257255D01*
X0078249Y0257337D01*
X0078069Y0257413D01*
X0077887Y0257486D01*
X0077704Y0257554D01*
X0077519Y0257617D01*
X0077332Y0257676D01*
X0077144Y0257730D01*
X0076955Y0257780D01*
X0076765Y0257825D01*
X0076573Y0257865D01*
X0076381Y0257901D01*
X0076188Y0257932D01*
X0075994Y0257958D01*
X0075799Y0257980D01*
X0075604Y0257996D01*
X0075409Y0258008D01*
X0075213Y0258016D01*
X0075018Y0258018D01*
X0082077Y0246253D02*
X0081984Y0246085D01*
X0081888Y0245919D01*
X0081788Y0245755D01*
X0081683Y0245594D01*
X0081575Y0245435D01*
X0081463Y0245279D01*
X0081347Y0245125D01*
X0081228Y0244975D01*
X0081105Y0244827D01*
X0080979Y0244682D01*
X0080849Y0244541D01*
X0080716Y0244402D01*
X0080579Y0244267D01*
X0080439Y0244135D01*
X0080297Y0244007D01*
X0080151Y0243882D01*
X0080002Y0243760D01*
X0079850Y0243642D01*
X0079696Y0243528D01*
X0079538Y0243418D01*
X0079379Y0243311D01*
X0079216Y0243208D01*
X0079051Y0243109D01*
X0078884Y0243014D01*
X0078715Y0242924D01*
X0078544Y0242837D01*
X0078370Y0242754D01*
X0078195Y0242676D01*
X0078017Y0242602D01*
X0077838Y0242532D01*
X0077658Y0242466D01*
X0077476Y0242405D01*
X0077292Y0242348D01*
X0077107Y0242296D01*
X0076921Y0242248D01*
X0076734Y0242204D01*
X0076546Y0242165D01*
X0076357Y0242131D01*
X0076167Y0242101D01*
X0075977Y0242076D01*
X0075786Y0242055D01*
X0075594Y0242039D01*
X0075402Y0242027D01*
X0075210Y0242020D01*
X0075018Y0242018D01*
X0068911Y0255186D02*
X0069038Y0255332D01*
X0069167Y0255474D01*
X0069301Y0255614D01*
X0069437Y0255750D01*
X0069577Y0255883D01*
X0069720Y0256013D01*
X0069867Y0256139D01*
X0070016Y0256261D01*
X0070168Y0256380D01*
X0070323Y0256495D01*
X0070480Y0256607D01*
X0070640Y0256714D01*
X0070803Y0256818D01*
X0070969Y0256917D01*
X0071136Y0257013D01*
X0071306Y0257105D01*
X0071478Y0257192D01*
X0071652Y0257276D01*
X0071828Y0257355D01*
X0072006Y0257429D01*
X0072186Y0257500D01*
X0072367Y0257566D01*
X0072550Y0257628D01*
X0072734Y0257685D01*
X0072920Y0257738D01*
X0073107Y0257786D01*
X0073295Y0257830D01*
X0073484Y0257869D01*
X0073674Y0257904D01*
X0073864Y0257934D01*
X0074055Y0257960D01*
X0074247Y0257981D01*
X0074440Y0257997D01*
X0074632Y0258009D01*
X0074825Y0258016D01*
X0075018Y0258018D01*
X0068872Y0244896D02*
X0068999Y0244748D01*
X0069129Y0244603D01*
X0069262Y0244462D01*
X0069399Y0244323D01*
X0069539Y0244188D01*
X0069683Y0244057D01*
X0069830Y0243929D01*
X0069979Y0243804D01*
X0070132Y0243683D01*
X0070287Y0243566D01*
X0070446Y0243453D01*
X0070607Y0243344D01*
X0070771Y0243239D01*
X0070937Y0243137D01*
X0071106Y0243040D01*
X0071276Y0242947D01*
X0071450Y0242858D01*
X0071625Y0242773D01*
X0071802Y0242693D01*
X0071981Y0242617D01*
X0072162Y0242545D01*
X0072345Y0242478D01*
X0072529Y0242415D01*
X0072715Y0242357D01*
X0072902Y0242303D01*
X0073090Y0242254D01*
X0073280Y0242209D01*
X0073470Y0242169D01*
X0073662Y0242134D01*
X0073854Y0242103D01*
X0074047Y0242077D01*
X0074241Y0242056D01*
X0074435Y0242039D01*
X0074629Y0242027D01*
X0074823Y0242020D01*
X0075018Y0242018D01*
X0080823Y0274026D02*
X0080724Y0274195D01*
X0080620Y0274361D01*
X0080513Y0274525D01*
X0080402Y0274686D01*
X0080287Y0274844D01*
X0080168Y0274999D01*
X0080045Y0275152D01*
X0079919Y0275301D01*
X0079789Y0275447D01*
X0079655Y0275590D01*
X0079518Y0275730D01*
X0079378Y0275866D01*
X0079234Y0275999D01*
X0079087Y0276128D01*
X0078937Y0276254D01*
X0078784Y0276375D01*
X0078628Y0276494D01*
X0078469Y0276608D01*
X0078308Y0276718D01*
X0078143Y0276824D01*
X0077977Y0276927D01*
X0077807Y0277025D01*
X0077636Y0277119D01*
X0077462Y0277209D01*
X0077286Y0277294D01*
X0077108Y0277376D01*
X0076928Y0277452D01*
X0076746Y0277525D01*
X0076563Y0277593D01*
X0076378Y0277656D01*
X0076191Y0277715D01*
X0076003Y0277769D01*
X0075814Y0277819D01*
X0075624Y0277864D01*
X0075432Y0277904D01*
X0075240Y0277940D01*
X0075047Y0277971D01*
X0074853Y0277997D01*
X0074658Y0278019D01*
X0074463Y0278035D01*
X0074268Y0278047D01*
X0074072Y0278055D01*
X0073877Y0278057D01*
X0080935Y0266292D02*
X0080842Y0266124D01*
X0080746Y0265958D01*
X0080646Y0265794D01*
X0080541Y0265633D01*
X0080433Y0265474D01*
X0080321Y0265318D01*
X0080205Y0265164D01*
X0080086Y0265014D01*
X0079963Y0264866D01*
X0079837Y0264721D01*
X0079707Y0264580D01*
X0079574Y0264441D01*
X0079437Y0264306D01*
X0079297Y0264174D01*
X0079155Y0264046D01*
X0079009Y0263921D01*
X0078860Y0263799D01*
X0078708Y0263681D01*
X0078554Y0263567D01*
X0078396Y0263457D01*
X0078237Y0263350D01*
X0078074Y0263247D01*
X0077909Y0263148D01*
X0077742Y0263053D01*
X0077573Y0262963D01*
X0077402Y0262876D01*
X0077228Y0262793D01*
X0077053Y0262715D01*
X0076875Y0262641D01*
X0076696Y0262571D01*
X0076516Y0262505D01*
X0076334Y0262444D01*
X0076150Y0262387D01*
X0075965Y0262335D01*
X0075779Y0262287D01*
X0075592Y0262243D01*
X0075404Y0262204D01*
X0075215Y0262170D01*
X0075025Y0262140D01*
X0074835Y0262115D01*
X0074644Y0262094D01*
X0074452Y0262078D01*
X0074260Y0262066D01*
X0074068Y0262059D01*
X0073876Y0262057D01*
X0067769Y0275225D02*
X0067896Y0275371D01*
X0068025Y0275513D01*
X0068159Y0275653D01*
X0068295Y0275789D01*
X0068435Y0275922D01*
X0068578Y0276052D01*
X0068725Y0276178D01*
X0068874Y0276300D01*
X0069026Y0276419D01*
X0069181Y0276534D01*
X0069338Y0276646D01*
X0069498Y0276753D01*
X0069661Y0276857D01*
X0069827Y0276956D01*
X0069994Y0277052D01*
X0070164Y0277144D01*
X0070336Y0277231D01*
X0070510Y0277315D01*
X0070686Y0277394D01*
X0070864Y0277468D01*
X0071044Y0277539D01*
X0071225Y0277605D01*
X0071408Y0277667D01*
X0071592Y0277724D01*
X0071778Y0277777D01*
X0071965Y0277825D01*
X0072153Y0277869D01*
X0072342Y0277908D01*
X0072532Y0277943D01*
X0072722Y0277973D01*
X0072913Y0277999D01*
X0073105Y0278020D01*
X0073298Y0278036D01*
X0073490Y0278048D01*
X0073683Y0278055D01*
X0073876Y0278057D01*
X0067730Y0264935D02*
X0067857Y0264787D01*
X0067987Y0264642D01*
X0068120Y0264501D01*
X0068257Y0264362D01*
X0068397Y0264227D01*
X0068541Y0264096D01*
X0068688Y0263968D01*
X0068837Y0263843D01*
X0068990Y0263722D01*
X0069145Y0263605D01*
X0069304Y0263492D01*
X0069465Y0263383D01*
X0069629Y0263278D01*
X0069795Y0263176D01*
X0069964Y0263079D01*
X0070134Y0262986D01*
X0070308Y0262897D01*
X0070483Y0262812D01*
X0070660Y0262732D01*
X0070839Y0262656D01*
X0071020Y0262584D01*
X0071203Y0262517D01*
X0071387Y0262454D01*
X0071573Y0262396D01*
X0071760Y0262342D01*
X0071948Y0262293D01*
X0072138Y0262248D01*
X0072328Y0262208D01*
X0072520Y0262173D01*
X0072712Y0262142D01*
X0072905Y0262116D01*
X0073099Y0262095D01*
X0073293Y0262078D01*
X0073487Y0262066D01*
X0073681Y0262059D01*
X0073876Y0262057D01*
X0079878Y0294971D02*
X0079779Y0295140D01*
X0079675Y0295306D01*
X0079568Y0295470D01*
X0079457Y0295631D01*
X0079342Y0295789D01*
X0079223Y0295944D01*
X0079100Y0296097D01*
X0078974Y0296246D01*
X0078844Y0296392D01*
X0078710Y0296535D01*
X0078573Y0296675D01*
X0078433Y0296811D01*
X0078289Y0296944D01*
X0078142Y0297073D01*
X0077992Y0297199D01*
X0077839Y0297320D01*
X0077683Y0297439D01*
X0077524Y0297553D01*
X0077363Y0297663D01*
X0077198Y0297769D01*
X0077032Y0297872D01*
X0076862Y0297970D01*
X0076691Y0298064D01*
X0076517Y0298154D01*
X0076341Y0298239D01*
X0076163Y0298321D01*
X0075983Y0298397D01*
X0075801Y0298470D01*
X0075618Y0298538D01*
X0075433Y0298601D01*
X0075246Y0298660D01*
X0075058Y0298714D01*
X0074869Y0298764D01*
X0074679Y0298809D01*
X0074487Y0298849D01*
X0074295Y0298885D01*
X0074102Y0298916D01*
X0073908Y0298942D01*
X0073713Y0298964D01*
X0073518Y0298980D01*
X0073323Y0298992D01*
X0073127Y0299000D01*
X0072932Y0299002D01*
X0079990Y0287237D02*
X0079897Y0287069D01*
X0079801Y0286903D01*
X0079701Y0286739D01*
X0079596Y0286578D01*
X0079488Y0286419D01*
X0079376Y0286263D01*
X0079260Y0286109D01*
X0079141Y0285959D01*
X0079018Y0285811D01*
X0078892Y0285666D01*
X0078762Y0285525D01*
X0078629Y0285386D01*
X0078492Y0285251D01*
X0078352Y0285119D01*
X0078210Y0284991D01*
X0078064Y0284866D01*
X0077915Y0284744D01*
X0077763Y0284626D01*
X0077609Y0284512D01*
X0077451Y0284402D01*
X0077292Y0284295D01*
X0077129Y0284192D01*
X0076964Y0284093D01*
X0076797Y0283998D01*
X0076628Y0283908D01*
X0076457Y0283821D01*
X0076283Y0283738D01*
X0076108Y0283660D01*
X0075930Y0283586D01*
X0075751Y0283516D01*
X0075571Y0283450D01*
X0075389Y0283389D01*
X0075205Y0283332D01*
X0075020Y0283280D01*
X0074834Y0283232D01*
X0074647Y0283188D01*
X0074459Y0283149D01*
X0074270Y0283115D01*
X0074080Y0283085D01*
X0073890Y0283060D01*
X0073699Y0283039D01*
X0073507Y0283023D01*
X0073315Y0283011D01*
X0073123Y0283004D01*
X0072931Y0283002D01*
X0066824Y0296170D02*
X0066951Y0296316D01*
X0067080Y0296458D01*
X0067214Y0296598D01*
X0067350Y0296734D01*
X0067490Y0296867D01*
X0067633Y0296997D01*
X0067780Y0297123D01*
X0067929Y0297245D01*
X0068081Y0297364D01*
X0068236Y0297479D01*
X0068393Y0297591D01*
X0068553Y0297698D01*
X0068716Y0297802D01*
X0068882Y0297901D01*
X0069049Y0297997D01*
X0069219Y0298089D01*
X0069391Y0298176D01*
X0069565Y0298260D01*
X0069741Y0298339D01*
X0069919Y0298413D01*
X0070099Y0298484D01*
X0070280Y0298550D01*
X0070463Y0298612D01*
X0070647Y0298669D01*
X0070833Y0298722D01*
X0071020Y0298770D01*
X0071208Y0298814D01*
X0071397Y0298853D01*
X0071587Y0298888D01*
X0071777Y0298918D01*
X0071968Y0298944D01*
X0072160Y0298965D01*
X0072353Y0298981D01*
X0072545Y0298993D01*
X0072738Y0299000D01*
X0072931Y0299002D01*
X0066785Y0285880D02*
X0066912Y0285732D01*
X0067042Y0285587D01*
X0067175Y0285446D01*
X0067312Y0285307D01*
X0067452Y0285172D01*
X0067596Y0285041D01*
X0067743Y0284913D01*
X0067892Y0284788D01*
X0068045Y0284667D01*
X0068200Y0284550D01*
X0068359Y0284437D01*
X0068520Y0284328D01*
X0068684Y0284223D01*
X0068850Y0284121D01*
X0069019Y0284024D01*
X0069189Y0283931D01*
X0069363Y0283842D01*
X0069538Y0283757D01*
X0069715Y0283677D01*
X0069894Y0283601D01*
X0070075Y0283529D01*
X0070258Y0283462D01*
X0070442Y0283399D01*
X0070628Y0283341D01*
X0070815Y0283287D01*
X0071003Y0283238D01*
X0071193Y0283193D01*
X0071383Y0283153D01*
X0071575Y0283118D01*
X0071767Y0283087D01*
X0071960Y0283061D01*
X0072154Y0283040D01*
X0072348Y0283023D01*
X0072542Y0283011D01*
X0072736Y0283004D01*
X0072931Y0283002D01*
D16*
X0094042Y0184935D02*
X0094042Y0157935D01*
X0094044Y0157765D01*
X0094050Y0157594D01*
X0094061Y0157424D01*
X0094075Y0157254D01*
X0094094Y0157085D01*
X0094117Y0156916D01*
X0094143Y0156747D01*
X0094174Y0156580D01*
X0094209Y0156413D01*
X0094249Y0156247D01*
X0094292Y0156082D01*
X0094339Y0155918D01*
X0094390Y0155756D01*
X0094445Y0155594D01*
X0094504Y0155434D01*
X0094567Y0155276D01*
X0094633Y0155119D01*
X0094704Y0154964D01*
X0094778Y0154810D01*
X0094856Y0154659D01*
X0094938Y0154509D01*
X0095023Y0154361D01*
X0095112Y0154216D01*
X0095204Y0154073D01*
X0095300Y0153932D01*
X0095399Y0153793D01*
X0095502Y0153657D01*
X0095607Y0153523D01*
X0095716Y0153392D01*
X0095829Y0153264D01*
X0095944Y0153138D01*
X0096062Y0153015D01*
X0096183Y0152896D01*
X0096308Y0152779D01*
X0096435Y0152665D01*
X0096564Y0152554D01*
X0096697Y0152447D01*
X0096832Y0152343D01*
X0096969Y0152242D01*
X0097109Y0152144D01*
X0097251Y0152050D01*
X0097395Y0151960D01*
X0097542Y0151873D01*
X0097691Y0151789D01*
X0097841Y0151710D01*
X0097994Y0151634D01*
X0098148Y0151561D01*
X0098304Y0151493D01*
X0098462Y0151428D01*
X0098621Y0151367D01*
X0098782Y0151310D01*
X0098944Y0151257D01*
X0099107Y0151208D01*
X0099271Y0151163D01*
X0099437Y0151122D01*
X0099603Y0151084D01*
X0099771Y0151051D01*
X0099939Y0151023D01*
X0100107Y0150998D01*
X0100276Y0150977D01*
X0100446Y0150960D01*
X0100616Y0150948D01*
X0100786Y0150940D01*
X0100957Y0150936D01*
X0101127Y0150936D01*
X0101298Y0150940D01*
X0101468Y0150948D01*
X0101638Y0150960D01*
X0101808Y0150977D01*
X0101977Y0150998D01*
X0102145Y0151023D01*
X0102313Y0151051D01*
X0102481Y0151084D01*
X0102647Y0151122D01*
X0102813Y0151163D01*
X0102977Y0151208D01*
X0103140Y0151257D01*
X0103302Y0151310D01*
X0103463Y0151367D01*
X0103622Y0151428D01*
X0103780Y0151493D01*
X0103936Y0151561D01*
X0104090Y0151634D01*
X0104243Y0151710D01*
X0104393Y0151789D01*
X0104542Y0151873D01*
X0104689Y0151960D01*
X0104833Y0152050D01*
X0104975Y0152144D01*
X0105115Y0152242D01*
X0105252Y0152343D01*
X0105387Y0152447D01*
X0105520Y0152554D01*
X0105649Y0152665D01*
X0105776Y0152779D01*
X0105901Y0152896D01*
X0106022Y0153015D01*
X0106140Y0153138D01*
X0106255Y0153264D01*
X0106368Y0153392D01*
X0106477Y0153523D01*
X0106582Y0153657D01*
X0106685Y0153793D01*
X0106784Y0153932D01*
X0106880Y0154073D01*
X0106972Y0154216D01*
X0107061Y0154361D01*
X0107146Y0154509D01*
X0107228Y0154659D01*
X0107306Y0154810D01*
X0107380Y0154964D01*
X0107451Y0155119D01*
X0107517Y0155276D01*
X0107580Y0155434D01*
X0107639Y0155594D01*
X0107694Y0155756D01*
X0107745Y0155918D01*
X0107792Y0156082D01*
X0107835Y0156247D01*
X0107875Y0156413D01*
X0107910Y0156580D01*
X0107941Y0156747D01*
X0107967Y0156916D01*
X0107990Y0157085D01*
X0108009Y0157254D01*
X0108023Y0157424D01*
X0108034Y0157594D01*
X0108040Y0157765D01*
X0108042Y0157935D01*
X0108042Y0184935D01*
X0108040Y0185105D01*
X0108034Y0185276D01*
X0108023Y0185446D01*
X0108009Y0185616D01*
X0107990Y0185785D01*
X0107967Y0185954D01*
X0107941Y0186123D01*
X0107910Y0186290D01*
X0107875Y0186457D01*
X0107835Y0186623D01*
X0107792Y0186788D01*
X0107745Y0186952D01*
X0107694Y0187114D01*
X0107639Y0187276D01*
X0107580Y0187436D01*
X0107517Y0187594D01*
X0107451Y0187751D01*
X0107380Y0187906D01*
X0107306Y0188060D01*
X0107228Y0188211D01*
X0107146Y0188361D01*
X0107061Y0188509D01*
X0106972Y0188654D01*
X0106880Y0188797D01*
X0106784Y0188938D01*
X0106685Y0189077D01*
X0106582Y0189213D01*
X0106477Y0189347D01*
X0106368Y0189478D01*
X0106255Y0189606D01*
X0106140Y0189732D01*
X0106022Y0189855D01*
X0105901Y0189974D01*
X0105776Y0190091D01*
X0105649Y0190205D01*
X0105520Y0190316D01*
X0105387Y0190423D01*
X0105252Y0190527D01*
X0105115Y0190628D01*
X0104975Y0190726D01*
X0104833Y0190820D01*
X0104689Y0190910D01*
X0104542Y0190997D01*
X0104393Y0191081D01*
X0104243Y0191160D01*
X0104090Y0191236D01*
X0103936Y0191309D01*
X0103780Y0191377D01*
X0103622Y0191442D01*
X0103463Y0191503D01*
X0103302Y0191560D01*
X0103140Y0191613D01*
X0102977Y0191662D01*
X0102813Y0191707D01*
X0102647Y0191748D01*
X0102481Y0191786D01*
X0102313Y0191819D01*
X0102145Y0191847D01*
X0101977Y0191872D01*
X0101808Y0191893D01*
X0101638Y0191910D01*
X0101468Y0191922D01*
X0101298Y0191930D01*
X0101127Y0191934D01*
X0100957Y0191934D01*
X0100786Y0191930D01*
X0100616Y0191922D01*
X0100446Y0191910D01*
X0100276Y0191893D01*
X0100107Y0191872D01*
X0099939Y0191847D01*
X0099771Y0191819D01*
X0099603Y0191786D01*
X0099437Y0191748D01*
X0099271Y0191707D01*
X0099107Y0191662D01*
X0098944Y0191613D01*
X0098782Y0191560D01*
X0098621Y0191503D01*
X0098462Y0191442D01*
X0098304Y0191377D01*
X0098148Y0191309D01*
X0097994Y0191236D01*
X0097841Y0191160D01*
X0097691Y0191081D01*
X0097542Y0190997D01*
X0097395Y0190910D01*
X0097251Y0190820D01*
X0097109Y0190726D01*
X0096969Y0190628D01*
X0096832Y0190527D01*
X0096697Y0190423D01*
X0096564Y0190316D01*
X0096435Y0190205D01*
X0096308Y0190091D01*
X0096183Y0189974D01*
X0096062Y0189855D01*
X0095944Y0189732D01*
X0095829Y0189606D01*
X0095716Y0189478D01*
X0095607Y0189347D01*
X0095502Y0189213D01*
X0095399Y0189077D01*
X0095300Y0188938D01*
X0095204Y0188797D01*
X0095112Y0188654D01*
X0095023Y0188509D01*
X0094938Y0188361D01*
X0094856Y0188211D01*
X0094778Y0188060D01*
X0094704Y0187906D01*
X0094633Y0187751D01*
X0094567Y0187594D01*
X0094504Y0187436D01*
X0094445Y0187276D01*
X0094390Y0187114D01*
X0094339Y0186952D01*
X0094292Y0186788D01*
X0094249Y0186623D01*
X0094209Y0186457D01*
X0094174Y0186290D01*
X0094143Y0186123D01*
X0094117Y0185954D01*
X0094094Y0185785D01*
X0094075Y0185616D01*
X0094061Y0185446D01*
X0094050Y0185276D01*
X0094044Y0185105D01*
X0094042Y0184935D01*
D17*
X0094865Y0267483D02*
X0094282Y0268067D01*
X0094865Y0267483D02*
X0096033Y0267483D01*
X0096617Y0268067D01*
X0096617Y0269235D01*
X0096033Y0269819D01*
X0095449Y0269819D01*
X0094282Y0269235D01*
X0094282Y0270986D01*
X0096617Y0270986D01*
X0093026Y0270403D02*
X0093026Y0269235D01*
X0092442Y0268651D01*
X0090691Y0268651D01*
X0091858Y0268651D02*
X0093026Y0267483D01*
X0090691Y0267483D02*
X0090691Y0270986D01*
X0092442Y0270986D01*
X0093026Y0270403D01*
X0091911Y0279413D02*
X0091911Y0282916D01*
X0093663Y0282916D01*
X0094246Y0282332D01*
X0094246Y0281164D01*
X0093663Y0280580D01*
X0091911Y0280580D01*
X0093079Y0280580D02*
X0094246Y0279413D01*
X0095502Y0281164D02*
X0097254Y0282916D01*
X0097254Y0279413D01*
X0097837Y0281164D02*
X0095502Y0281164D01*
X0095467Y0290279D02*
X0094299Y0291446D01*
X0094883Y0291446D02*
X0093131Y0291446D01*
X0093131Y0290279D02*
X0093131Y0293782D01*
X0094883Y0293782D01*
X0095467Y0293198D01*
X0095467Y0292030D01*
X0094883Y0291446D01*
X0096723Y0290863D02*
X0097306Y0290279D01*
X0098474Y0290279D01*
X0099058Y0290863D01*
X0099058Y0291446D01*
X0098474Y0292030D01*
X0097890Y0292030D01*
X0098474Y0292030D02*
X0099058Y0292614D01*
X0099058Y0293198D01*
X0098474Y0293782D01*
X0097306Y0293782D01*
X0096723Y0293198D01*
X0095817Y0302287D02*
X0098152Y0304622D01*
X0098152Y0305206D01*
X0097569Y0305790D01*
X0096401Y0305790D01*
X0095817Y0305206D01*
X0094561Y0305206D02*
X0093977Y0305790D01*
X0092226Y0305790D01*
X0092226Y0302287D01*
X0092226Y0303454D02*
X0093977Y0303454D01*
X0094561Y0304038D01*
X0094561Y0305206D01*
X0093394Y0303454D02*
X0094561Y0302287D01*
X0095817Y0302287D02*
X0098152Y0302287D01*
X0097356Y0322895D02*
X0093853Y0322895D01*
X0093853Y0324647D01*
X0094437Y0325231D01*
X0095604Y0325231D01*
X0096188Y0324647D01*
X0096188Y0322895D01*
X0096188Y0324063D02*
X0097356Y0325231D01*
X0097356Y0326486D02*
X0097356Y0328822D01*
X0097356Y0327654D02*
X0093853Y0327654D01*
X0095021Y0326486D01*
X0068128Y0327974D02*
X0065058Y0327974D01*
X0066593Y0327974D02*
X0066593Y0332578D01*
X0065058Y0331043D01*
X0063524Y0331811D02*
X0062756Y0332578D01*
X0061222Y0332578D01*
X0060454Y0331811D01*
X0060454Y0331043D01*
X0061222Y0330276D01*
X0062756Y0330276D01*
X0063524Y0329509D01*
X0063524Y0328741D01*
X0062756Y0327974D01*
X0061222Y0327974D01*
X0060454Y0328741D01*
D18*
X0102656Y0321945D03*
X0102656Y0343445D03*
D19*
X0112776Y0296987D03*
X0113681Y0284979D03*
X0112461Y0274113D03*
X0111241Y0262183D03*
X0092181Y0284979D03*
X0090961Y0274113D03*
X0089741Y0262183D03*
X0091276Y0296987D03*
D20*
X0082065Y0310884D02*
X0058443Y0310884D01*
X0058443Y0311869D01*
X0066317Y0314821D02*
X0074191Y0314821D01*
X0074191Y0320727D02*
X0066317Y0320727D01*
X0058443Y0323680D02*
X0058443Y0324664D01*
X0082065Y0324664D01*
X0082065Y0323680D01*
X0082065Y0311869D02*
X0082065Y0310884D01*
X0165904Y0308259D02*
X0167138Y0307024D01*
X0169607Y0307024D01*
X0170841Y0308259D01*
X0170841Y0314431D01*
X0173454Y0313196D02*
X0174689Y0314431D01*
X0177158Y0314431D01*
X0178392Y0313196D01*
X0177158Y0310728D02*
X0174689Y0310728D01*
X0173454Y0311962D01*
X0173454Y0313196D01*
X0175923Y0315665D02*
X0175923Y0305790D01*
X0174689Y0307024D02*
X0177158Y0307024D01*
X0178392Y0308259D01*
X0178392Y0309493D01*
X0177158Y0310728D01*
X0181005Y0311962D02*
X0183474Y0314431D01*
X0183474Y0307024D01*
X0185942Y0307024D02*
X0181005Y0307024D01*
X0174689Y0307024D02*
X0173454Y0308259D01*
X0165904Y0308259D02*
X0165904Y0314431D01*
D21*
X0154390Y0302094D02*
X0151254Y0298958D01*
X0152822Y0298958D02*
X0152822Y0302094D01*
X0151254Y0302094D02*
X0154390Y0298958D01*
X0154390Y0300526D02*
X0151254Y0300526D01*
X0021021Y0397030D02*
X0020538Y0396546D01*
X0019570Y0396546D01*
X0019086Y0397030D01*
X0020054Y0397997D02*
X0020538Y0397997D01*
X0021021Y0397514D01*
X0021021Y0397030D01*
X0020538Y0397997D02*
X0021021Y0398481D01*
X0021021Y0398965D01*
X0020538Y0399449D01*
X0019570Y0399449D01*
X0019086Y0398965D01*
X0018075Y0399449D02*
X0016140Y0399449D01*
X0017107Y0399449D02*
X0017107Y0396546D01*
X0015128Y0396546D02*
X0015128Y0399449D01*
X0013193Y0399449D02*
X0015128Y0396546D01*
X0013193Y0396546D02*
X0013193Y0399449D01*
X0012182Y0399449D02*
X0012182Y0396546D01*
X0010247Y0396546D02*
X0010247Y0399449D01*
X0011214Y0398481D01*
X0012182Y0399449D01*
X0011985Y0033189D02*
X0011017Y0032221D01*
X0010050Y0033189D01*
X0010050Y0030286D01*
X0011985Y0030286D02*
X0011985Y0033189D01*
X0012997Y0033189D02*
X0014931Y0030286D01*
X0014931Y0033189D01*
X0015943Y0033189D02*
X0017878Y0033189D01*
X0016911Y0033189D02*
X0016911Y0030286D01*
X0018890Y0030286D02*
X0020825Y0032221D01*
X0020825Y0032705D01*
X0020341Y0033189D01*
X0019373Y0033189D01*
X0018890Y0032705D01*
X0018890Y0030286D02*
X0020825Y0030286D01*
X0012997Y0030286D02*
X0012997Y0033189D01*
X0376704Y0032952D02*
X0377671Y0031985D01*
X0378639Y0032952D01*
X0378639Y0030050D01*
X0379650Y0030050D02*
X0379650Y0032952D01*
X0381585Y0030050D01*
X0381585Y0032952D01*
X0382597Y0032952D02*
X0384532Y0032952D01*
X0383564Y0032952D02*
X0383564Y0030050D01*
X0385543Y0031501D02*
X0386994Y0032952D01*
X0386994Y0030050D01*
X0387478Y0031501D02*
X0385543Y0031501D01*
X0376704Y0030050D02*
X0376704Y0032952D01*
X0376664Y0396704D02*
X0376664Y0399606D01*
X0377632Y0398639D01*
X0378599Y0399606D01*
X0378599Y0396704D01*
X0379611Y0396704D02*
X0379611Y0399606D01*
X0381546Y0396704D01*
X0381546Y0399606D01*
X0382557Y0399606D02*
X0384492Y0399606D01*
X0383525Y0399606D02*
X0383525Y0396704D01*
X0385504Y0396704D02*
X0387439Y0396704D01*
X0386471Y0396704D02*
X0386471Y0399606D01*
X0385504Y0398639D01*
M02*
